%TF.GenerationSoftware,KiCad,Pcbnew,6.0.11-2627ca5db0~126~ubuntu20.04.1*%
%TF.CreationDate,2023-08-10T10:55:20+02:00*%
%TF.ProjectId,ScartPCB,53636172-7450-4434-922e-6b696361645f,2.0*%
%TF.SameCoordinates,PX76bb820PY7641700*%
%TF.FileFunction,Copper,L4,Bot*%
%TF.FilePolarity,Positive*%
%FSLAX46Y46*%
G04 Gerber Fmt 4.6, Leading zero omitted, Abs format (unit mm)*
G04 Created by KiCad (PCBNEW 6.0.11-2627ca5db0~126~ubuntu20.04.1) date 2023-08-10 10:55:20*
%MOMM*%
%LPD*%
G01*
G04 APERTURE LIST*
G04 Aperture macros list*
%AMRoundRect*
0 Rectangle with rounded corners*
0 $1 Rounding radius*
0 $2 $3 $4 $5 $6 $7 $8 $9 X,Y pos of 4 corners*
0 Add a 4 corners polygon primitive as box body*
4,1,4,$2,$3,$4,$5,$6,$7,$8,$9,$2,$3,0*
0 Add four circle primitives for the rounded corners*
1,1,$1+$1,$2,$3*
1,1,$1+$1,$4,$5*
1,1,$1+$1,$6,$7*
1,1,$1+$1,$8,$9*
0 Add four rect primitives between the rounded corners*
20,1,$1+$1,$2,$3,$4,$5,0*
20,1,$1+$1,$4,$5,$6,$7,0*
20,1,$1+$1,$6,$7,$8,$9,0*
20,1,$1+$1,$8,$9,$2,$3,0*%
%AMFreePoly0*
4,1,6,1.000000,0.000000,0.500000,-0.750000,-0.500000,-0.750000,-0.500000,0.750000,0.500000,0.750000,1.000000,0.000000,1.000000,0.000000,$1*%
%AMFreePoly1*
4,1,6,0.500000,-0.750000,-0.650000,-0.750000,-0.150000,0.000000,-0.650000,0.750000,0.500000,0.750000,0.500000,-0.750000,0.500000,-0.750000,$1*%
G04 Aperture macros list end*
%TA.AperFunction,SMDPad,CuDef*%
%ADD10RoundRect,0.571500X-0.571500X-1.562000X0.571500X-1.562000X0.571500X1.562000X-0.571500X1.562000X0*%
%TD*%
%TA.AperFunction,SMDPad,CuDef*%
%ADD11RoundRect,0.140000X0.140000X0.170000X-0.140000X0.170000X-0.140000X-0.170000X0.140000X-0.170000X0*%
%TD*%
%TA.AperFunction,SMDPad,CuDef*%
%ADD12RoundRect,0.135000X-0.135000X-0.185000X0.135000X-0.185000X0.135000X0.185000X-0.135000X0.185000X0*%
%TD*%
%TA.AperFunction,SMDPad,CuDef*%
%ADD13RoundRect,0.218750X0.218750X0.256250X-0.218750X0.256250X-0.218750X-0.256250X0.218750X-0.256250X0*%
%TD*%
%TA.AperFunction,SMDPad,CuDef*%
%ADD14RoundRect,0.571500X-0.276429X-0.759481X0.759481X-0.276429X0.276429X0.759481X-0.759481X0.276429X0*%
%TD*%
%TA.AperFunction,SMDPad,CuDef*%
%ADD15RoundRect,0.135000X0.135000X0.185000X-0.135000X0.185000X-0.135000X-0.185000X0.135000X-0.185000X0*%
%TD*%
%TA.AperFunction,SMDPad,CuDef*%
%ADD16RoundRect,0.135000X0.185000X-0.135000X0.185000X0.135000X-0.185000X0.135000X-0.185000X-0.135000X0*%
%TD*%
%TA.AperFunction,SMDPad,CuDef*%
%ADD17RoundRect,0.147500X-0.147500X-0.172500X0.147500X-0.172500X0.147500X0.172500X-0.147500X0.172500X0*%
%TD*%
%TA.AperFunction,SMDPad,CuDef*%
%ADD18FreePoly0,25.000000*%
%TD*%
%TA.AperFunction,SMDPad,CuDef*%
%ADD19FreePoly1,25.000000*%
%TD*%
%TA.AperFunction,SMDPad,CuDef*%
%ADD20RoundRect,0.225000X-0.225000X-0.250000X0.225000X-0.250000X0.225000X0.250000X-0.225000X0.250000X0*%
%TD*%
%TA.AperFunction,SMDPad,CuDef*%
%ADD21R,0.700000X0.450000*%
%TD*%
%TA.AperFunction,SMDPad,CuDef*%
%ADD22RoundRect,0.140000X0.170000X-0.140000X0.170000X0.140000X-0.170000X0.140000X-0.170000X-0.140000X0*%
%TD*%
%TA.AperFunction,SMDPad,CuDef*%
%ADD23RoundRect,0.147500X0.172500X-0.147500X0.172500X0.147500X-0.172500X0.147500X-0.172500X-0.147500X0*%
%TD*%
%TA.AperFunction,SMDPad,CuDef*%
%ADD24R,1.100000X0.650001*%
%TD*%
%TA.AperFunction,SMDPad,CuDef*%
%ADD25FreePoly0,205.000000*%
%TD*%
%TA.AperFunction,SMDPad,CuDef*%
%ADD26FreePoly1,205.000000*%
%TD*%
%TA.AperFunction,ViaPad*%
%ADD27C,0.800000*%
%TD*%
%TA.AperFunction,Conductor*%
%ADD28C,0.250000*%
%TD*%
%TA.AperFunction,Conductor*%
%ADD29C,0.350000*%
%TD*%
G04 APERTURE END LIST*
D10*
%TO.P,J1,2,Pin_2*%
%TO.N,AR*%
X36747500Y2642500D03*
%TO.P,J1,4,Pin_4*%
%TO.N,unconnected-(J1-Pad4)*%
X32937500Y2642500D03*
%TO.P,J1,6,Pin_6*%
%TO.N,AL*%
X29127500Y2642500D03*
%TO.P,J1,8,Pin_8*%
%TO.N,SWITCH*%
X25317500Y2642500D03*
%TO.P,J1,10,Pin_10*%
%TO.N,unconnected-(J1-Pad10)*%
X21507500Y2642500D03*
%TO.P,J1,12,Pin_12*%
%TO.N,unconnected-(J1-Pad12)*%
X17697500Y2642500D03*
%TO.P,J1,14,Pin_14*%
%TO.N,unconnected-(J1-Pad14)*%
X13887500Y2642500D03*
%TO.P,J1,16,Pin_16*%
%TO.N,RGB_BLANKING*%
X10077500Y2642500D03*
%TO.P,J1,18,Pin_18*%
%TO.N,GND*%
X6267500Y2642500D03*
%TO.P,J1,20,Pin_20*%
%TO.N,COMPOSITE_SYNC*%
X2457500Y2642500D03*
%TD*%
D11*
%TO.P,C3,1*%
%TO.N,Net-(C2-Pad1)*%
X25664800Y7083800D03*
%TO.P,C3,2*%
%TO.N,GND*%
X24704800Y7083800D03*
%TD*%
D12*
%TO.P,RC2,1*%
%TO.N,COMPOSITE_SYNC*%
X2548800Y6855200D03*
%TO.P,RC2,2*%
%TO.N,GND*%
X3568800Y6855200D03*
%TD*%
D13*
%TO.P,L1,1,1*%
%TO.N,Net-(C1-Pad1)*%
X31354500Y5824001D03*
%TO.P,L1,2,2*%
%TO.N,Net-(D2-Pad2)*%
X29779500Y5824001D03*
%TD*%
D14*
%TO.P,JI4,1,Pin_1*%
%TO.N,C*%
X19988949Y14335500D03*
%TD*%
%TO.P,JI8,1,Pin_1*%
%TO.N,+5V*%
X30694000Y14780000D03*
%TD*%
%TO.P,JI11,1,Pin_1*%
%TO.N,GND*%
X17105000Y13002000D03*
%TD*%
D15*
%TO.P,R9,1*%
%TO.N,Net-(JP2-Pad2)*%
X12408000Y5509000D03*
%TO.P,R9,2*%
%TO.N,RGB_BLANKING*%
X11388000Y5509000D03*
%TD*%
%TO.P,R2,1*%
%TO.N,Net-(C2-Pad2)*%
X25717600Y8125200D03*
%TO.P,R2,2*%
%TO.N,GND*%
X24697600Y8125200D03*
%TD*%
D12*
%TO.P,R8,1*%
%TO.N,Net-(CC1-Pad2)*%
X14563000Y6880600D03*
%TO.P,R8,2*%
%TO.N,GND*%
X15583000Y6880600D03*
%TD*%
D16*
%TO.P,R7,1*%
%TO.N,Net-(CC1-Pad2)*%
X13549000Y6827800D03*
%TO.P,R7,2*%
%TO.N,C_SYNC*%
X13549000Y7847800D03*
%TD*%
D14*
%TO.P,JI7,1,Pin_1*%
%TO.N,AL*%
X22872898Y15669000D03*
%TD*%
D17*
%TO.P,D2,1,K*%
%TO.N,Net-(C2-Pad1)*%
X26983200Y6093200D03*
%TO.P,D2,2,A*%
%TO.N,Net-(D2-Pad2)*%
X27953200Y6093200D03*
%TD*%
D18*
%TO.P,JP1,1,A*%
%TO.N,AL*%
X26353927Y12822602D03*
D19*
%TO.P,JP1,2,B*%
%TO.N,AR*%
X27668073Y13435398D03*
%TD*%
D16*
%TO.P,R1,1*%
%TO.N,Net-(C2-Pad1)*%
X26708500Y7160000D03*
%TO.P,R1,2*%
%TO.N,Net-(C2-Pad2)*%
X26708500Y8180000D03*
%TD*%
D12*
%TO.P,R6,1*%
%TO.N,Net-(C4-Pad2)*%
X13476400Y9938600D03*
%TO.P,R6,2*%
%TO.N,GND*%
X14496400Y9938600D03*
%TD*%
D14*
%TO.P,JI6,1,Pin_1*%
%TO.N,AR*%
X25756847Y17002500D03*
%TD*%
D20*
%TO.P,CC3,1*%
%TO.N,Net-(CC1-Pad1)*%
X5966800Y5890000D03*
%TO.P,CC3,2*%
%TO.N,Net-(CC1-Pad2)*%
X7516800Y5890000D03*
%TD*%
D21*
%TO.P,Q1,1,B*%
%TO.N,Net-(C4-Pad2)*%
X12161400Y8648200D03*
%TO.P,Q1,2,E*%
%TO.N,C_SYNC*%
X12161400Y7348200D03*
%TO.P,Q1,3,C*%
%TO.N,+5V*%
X10161400Y7998200D03*
%TD*%
D22*
%TO.P,C1,1*%
%TO.N,Net-(C1-Pad1)*%
X33164000Y7122001D03*
%TO.P,C1,2*%
%TO.N,GND*%
X33164000Y8082001D03*
%TD*%
D23*
%TO.P,D1,1,K*%
%TO.N,Net-(C1-Pad1)*%
X34307000Y7117001D03*
%TO.P,D1,2,A*%
%TO.N,+5V*%
X34307000Y8087001D03*
%TD*%
D21*
%TO.P,Q2,1,B*%
%TO.N,Net-(C4-Pad2)*%
X8605400Y8648200D03*
%TO.P,Q2,2,E*%
%TO.N,C_SYNC*%
X8605400Y7348200D03*
%TO.P,Q2,3,C*%
%TO.N,GND*%
X6605400Y7998200D03*
%TD*%
D15*
%TO.P,R3,1*%
%TO.N,Net-(C2-Pad1)*%
X25717600Y6042400D03*
%TO.P,R3,2*%
%TO.N,SWITCH*%
X24697600Y6042400D03*
%TD*%
D12*
%TO.P,R5,1*%
%TO.N,+5V*%
X11413400Y9928600D03*
%TO.P,R5,2*%
%TO.N,Net-(C4-Pad2)*%
X12433400Y9928600D03*
%TD*%
D24*
%TO.P,U1,1,SW*%
%TO.N,Net-(D2-Pad2)*%
X29297000Y7541000D03*
%TO.P,U1,2,GND*%
%TO.N,GND*%
X29297000Y8491001D03*
%TO.P,U1,3,FB*%
%TO.N,Net-(C2-Pad2)*%
X29297000Y9440999D03*
%TO.P,U1,4,EN*%
%TO.N,Net-(C1-Pad1)*%
X31697000Y9440999D03*
%TO.P,U1,5,VIN*%
X31697000Y7541000D03*
%TD*%
D14*
%TO.P,JI10,1,Pin_1*%
%TO.N,GND*%
X28662000Y18336000D03*
%TD*%
D25*
%TO.P,JP2,1,A*%
%TO.N,+5V*%
X24366073Y11911398D03*
D26*
%TO.P,JP2,2,B*%
%TO.N,Net-(JP2-Pad2)*%
X23051927Y11298602D03*
%TD*%
D25*
%TO.P,JP3,1,A*%
%TO.N,C*%
X21064073Y10387398D03*
D26*
%TO.P,JP3,2,B*%
%TO.N,C_SYNC*%
X19749927Y9774602D03*
%TD*%
D11*
%TO.P,C4,1*%
%TO.N,C*%
X14466400Y8838200D03*
%TO.P,C4,2*%
%TO.N,Net-(C4-Pad2)*%
X13506400Y8838200D03*
%TD*%
D22*
%TO.P,C2,1*%
%TO.N,Net-(C2-Pad1)*%
X27851500Y7190000D03*
%TO.P,C2,2*%
%TO.N,Net-(C2-Pad2)*%
X27851500Y8150000D03*
%TD*%
D12*
%TO.P,RC1,1*%
%TO.N,COMPOSITE_SYNC*%
X1761400Y5686800D03*
%TO.P,RC1,2*%
%TO.N,Net-(CC1-Pad1)*%
X2781400Y5686800D03*
%TD*%
D27*
%TO.N,GND*%
X9129400Y10182600D03*
X30490800Y10436600D03*
X6868800Y2308600D03*
X32472000Y12494000D03*
X14742800Y12290800D03*
X30592400Y17066000D03*
X4841014Y8298785D03*
X28154000Y18590000D03*
X16673200Y7240500D03*
X30490800Y7515600D03*
X17740000Y12748000D03*
X6868800Y4112000D03*
X9967600Y5788400D03*
X33234000Y10208000D03*
X29170000Y18082000D03*
X22148398Y13179800D03*
X23378800Y7541000D03*
X16470000Y13256000D03*
X6132200Y1419600D03*
X6132200Y3248400D03*
X26630000Y9954000D03*
X19179206Y7807194D03*
X37806000Y7160000D03*
X34199200Y5813800D03*
X12177400Y11655800D03*
X28458800Y15999200D03*
X37044000Y6398000D03*
%TO.N,+5V*%
X29957400Y15059400D03*
X11237600Y7998200D03*
X30440000Y14094200D03*
X35520000Y7414000D03*
X31379800Y14551400D03*
X24366073Y11911398D03*
X30973400Y15491200D03*
X10678800Y9928600D03*
X35520000Y8684000D03*
%TO.N,AL*%
X27722200Y2359400D03*
X26503000Y12875000D03*
%TO.N,AR*%
X35342200Y2359400D03*
X27900000Y13129000D03*
%TO.N,Net-(CC1-Pad1)*%
X3740767Y5902100D03*
%TO.N,Net-(CC1-Pad2)*%
X8545200Y6523698D03*
%TD*%
D28*
%TO.N,Net-(C1-Pad1)*%
X33169000Y7117001D02*
X33164000Y7122001D01*
X32115999Y7122001D02*
X31697000Y7541000D01*
X34307000Y7117001D02*
X33169000Y7117001D01*
X31354500Y7198500D02*
X31697000Y7541000D01*
X31354500Y5824001D02*
X31354500Y7198500D01*
X33164000Y7122001D02*
X32115999Y7122001D01*
X31697000Y7541000D02*
X31697000Y9440999D01*
D29*
%TO.N,GND*%
X30490800Y10436600D02*
X30490800Y8784801D01*
X30490800Y8501202D02*
X30480599Y8491001D01*
X30480599Y8491001D02*
X29297000Y8491001D01*
X30490800Y7515600D02*
X30490800Y8784801D01*
D28*
%TO.N,Net-(C2-Pad2)*%
X28497000Y9440999D02*
X27851500Y8795499D01*
X29297000Y9440999D02*
X28497000Y9440999D01*
X27851500Y8795499D02*
X27851500Y8150000D01*
X25772400Y8180000D02*
X25717600Y8125200D01*
X27851500Y8150000D02*
X26738500Y8150000D01*
X26708500Y8180000D02*
X25772400Y8180000D01*
D29*
%TO.N,+5V*%
X10161400Y7998200D02*
X11237600Y7998200D01*
X10678800Y9928600D02*
X11413400Y9928600D01*
D28*
%TO.N,SWITCH*%
X25317500Y5422500D02*
X24697600Y6042400D01*
X25317500Y2642500D02*
X25317500Y5422500D01*
%TO.N,RGB_BLANKING*%
X10077500Y4198500D02*
X10077500Y2642500D01*
X11388000Y5509000D02*
X10077500Y4198500D01*
%TO.N,COMPOSITE_SYNC*%
X1761400Y3338600D02*
X1761400Y5686800D01*
X2548800Y6700800D02*
X1761400Y5913400D01*
X2548800Y6855200D02*
X2548800Y6700800D01*
X1761400Y5913400D02*
X1761400Y5686800D01*
X2457500Y2642500D02*
X1761400Y3338600D01*
%TO.N,Net-(JP2-Pad2)*%
X23124800Y9242800D02*
X23124800Y11225729D01*
X12408000Y5509000D02*
X19391000Y5509000D01*
X19391000Y5509000D02*
X23124800Y9242800D01*
X23124800Y11225729D02*
X23051927Y11298602D01*
%TO.N,C_SYNC*%
X8680400Y7273200D02*
X12086400Y7273200D01*
X13549000Y7847800D02*
X13666700Y7965500D01*
X13470800Y7769600D02*
X13549000Y7847800D01*
X12582800Y7769600D02*
X12161400Y7348200D01*
X19186202Y9774602D02*
X19749927Y9774602D01*
X12086400Y7273200D02*
X12161400Y7348200D01*
X8605400Y7348200D02*
X8680400Y7273200D01*
X12582800Y7769600D02*
X13470800Y7769600D01*
X17377100Y7965500D02*
X19186202Y9774602D01*
X13666700Y7965500D02*
X17377100Y7965500D01*
%TO.N,C*%
X21064073Y11176527D02*
X21064073Y10387398D01*
X19988949Y12253749D02*
X19988949Y14335500D01*
X19988949Y12251651D02*
X21064073Y11176527D01*
X14617000Y8988800D02*
X16724000Y8988800D01*
X14466400Y8838200D02*
X14617000Y8988800D01*
X19988949Y14335500D02*
X19988949Y12251651D01*
X16724000Y8988800D02*
X19988949Y12253749D01*
%TO.N,AL*%
X23963000Y15669000D02*
X22872898Y15669000D01*
X26503000Y12875000D02*
X26503000Y13129000D01*
X26503000Y13129000D02*
X23963000Y15669000D01*
X27722200Y2359400D02*
X29123900Y2359400D01*
X29123900Y2359400D02*
X29127500Y2363000D01*
%TO.N,AR*%
X27900000Y13129000D02*
X26779073Y14249927D01*
X26779073Y14249927D02*
X26779073Y15980274D01*
X26779073Y15980274D02*
X25756847Y17002500D01*
X35345800Y2363000D02*
X36747500Y2363000D01*
X35342200Y2359400D02*
X35345800Y2363000D01*
%TO.N,Net-(C4-Pad2)*%
X12433400Y9928600D02*
X13466400Y9928600D01*
X13500800Y8838200D02*
X13500800Y9914200D01*
X12161400Y8648200D02*
X12074800Y8734800D01*
X8692000Y8734800D02*
X8605400Y8648200D01*
X12161400Y8648200D02*
X13500800Y8648200D01*
X12074800Y8734800D02*
X8692000Y8734800D01*
X13466400Y9928600D02*
X13476400Y9938600D01*
X13500800Y9914200D02*
X13476400Y9938600D01*
%TO.N,Net-(C2-Pad1)*%
X26983200Y6093200D02*
X25768400Y6093200D01*
X26708500Y6367900D02*
X26983200Y6093200D01*
X25768400Y6093200D02*
X25717600Y6042400D01*
X26708500Y7160000D02*
X26708500Y6367900D01*
X25741000Y7160000D02*
X25664800Y7083800D01*
X26708500Y7160000D02*
X27821500Y7160000D01*
X26708500Y7160000D02*
X25741000Y7160000D01*
%TO.N,Net-(D2-Pad2)*%
X29297000Y6306501D02*
X29779500Y5824001D01*
X29297000Y7541000D02*
X29297000Y6306501D01*
X29510301Y6093200D02*
X29779500Y5824001D01*
X27953200Y6093200D02*
X29510301Y6093200D01*
%TO.N,Net-(CC1-Pad1)*%
X3740767Y5902100D02*
X2996700Y5902100D01*
X3740767Y5902100D02*
X3752867Y5890000D01*
X3752867Y5890000D02*
X5966800Y5890000D01*
X2996700Y5902100D02*
X2781400Y5686800D01*
%TO.N,Net-(CC1-Pad2)*%
X13476400Y6728200D02*
X8749702Y6728200D01*
X13549000Y6827800D02*
X14510200Y6827800D01*
X14510200Y6827800D02*
X14563000Y6880600D01*
X7911502Y5890000D02*
X7516800Y5890000D01*
X8545200Y6626600D02*
X8605400Y6686800D01*
X8545200Y6523698D02*
X8545200Y6626600D01*
X8545200Y6523698D02*
X7911502Y5890000D01*
X8749702Y6728200D02*
X8545200Y6523698D01*
%TD*%
%TA.AperFunction,Conductor*%
%TO.N,GND*%
G36*
X10599611Y6074698D02*
G01*
X10646104Y6021042D01*
X10656208Y5950768D01*
X10652487Y5933547D01*
X10612371Y5795466D01*
X10609500Y5758989D01*
X10609500Y5678595D01*
X10589498Y5610474D01*
X10572595Y5589500D01*
X10304500Y5321405D01*
X10242188Y5287379D01*
X10215405Y5284500D01*
X9453672Y5284499D01*
X9423308Y5284499D01*
X9421370Y5284379D01*
X9421362Y5284379D01*
X9394120Y5282695D01*
X9375662Y5281555D01*
X9174347Y5237478D01*
X8984999Y5156127D01*
X8814450Y5040440D01*
X8810214Y5036197D01*
X8810212Y5036195D01*
X8744829Y4970698D01*
X8668854Y4894590D01*
X8665497Y4889623D01*
X8665495Y4889620D01*
X8639237Y4850763D01*
X8553465Y4723839D01*
X8472445Y4534349D01*
X8428719Y4332958D01*
X8428430Y4328093D01*
X8426116Y4289138D01*
X8426000Y4287193D01*
X8426001Y997808D01*
X8428945Y950162D01*
X8473022Y748847D01*
X8475387Y743343D01*
X8475388Y743339D01*
X8500780Y684237D01*
X8509292Y613753D01*
X8478346Y549856D01*
X8417768Y512832D01*
X8385012Y508500D01*
X7959382Y508500D01*
X7891261Y528502D01*
X7844768Y582158D01*
X7834664Y652432D01*
X7843527Y684035D01*
X7869720Y745295D01*
X7873349Y756667D01*
X7914748Y947340D01*
X7916071Y956967D01*
X7918390Y995995D01*
X7918500Y999710D01*
X7918500Y2370385D01*
X7914025Y2385624D01*
X7912635Y2386829D01*
X7904952Y2388500D01*
X4634616Y2388500D01*
X4619377Y2384025D01*
X4618172Y2382635D01*
X4616501Y2374952D01*
X4616501Y999801D01*
X4616621Y995907D01*
X4619145Y955063D01*
X4620481Y945484D01*
X4662219Y754856D01*
X4665867Y743492D01*
X4691325Y684239D01*
X4699838Y613754D01*
X4668893Y549857D01*
X4608315Y512833D01*
X4575558Y508500D01*
X4149927Y508500D01*
X4081806Y528502D01*
X4035313Y582158D01*
X4025209Y652432D01*
X4034072Y684035D01*
X4060200Y745143D01*
X4062555Y750651D01*
X4106281Y952042D01*
X4106873Y962007D01*
X4108890Y995951D01*
X4108890Y995960D01*
X4109000Y997807D01*
X4108999Y4287192D01*
X4106055Y4334838D01*
X4061978Y4536153D01*
X3992425Y4698041D01*
X3982994Y4719992D01*
X3982993Y4719993D01*
X3980627Y4725501D01*
X3908653Y4831607D01*
X3886966Y4899210D01*
X3905271Y4967806D01*
X3957755Y5015617D01*
X3986731Y5025585D01*
X4016597Y5031933D01*
X4016600Y5031934D01*
X4023055Y5033306D01*
X4038207Y5040052D01*
X4191489Y5108297D01*
X4191491Y5108298D01*
X4197519Y5110982D01*
X4202861Y5114863D01*
X4346676Y5219351D01*
X4346678Y5219353D01*
X4352020Y5223234D01*
X4353474Y5224849D01*
X4415999Y5254854D01*
X4436301Y5256500D01*
X4917327Y5256500D01*
X4985448Y5236498D01*
X5031941Y5182842D01*
X5042045Y5112568D01*
X5012551Y5047988D01*
X5004603Y5040220D01*
X5004771Y5040052D01*
X4863476Y4898510D01*
X4855889Y4889306D01*
X4747266Y4728571D01*
X4741545Y4718076D01*
X4665283Y4539714D01*
X4661651Y4528333D01*
X4620252Y4337660D01*
X4618929Y4328033D01*
X4616610Y4289005D01*
X4616500Y4285290D01*
X4616500Y2914615D01*
X4620975Y2899376D01*
X4622365Y2898171D01*
X4630048Y2896500D01*
X7900384Y2896500D01*
X7915623Y2900975D01*
X7916828Y2902365D01*
X7918499Y2910048D01*
X7918499Y4285198D01*
X7918379Y4289093D01*
X7915855Y4329937D01*
X7914519Y4339516D01*
X7872781Y4530144D01*
X7869134Y4541503D01*
X7792553Y4719750D01*
X7786730Y4730385D01*
X7771560Y4799742D01*
X7796295Y4866290D01*
X7853082Y4908902D01*
X7884239Y4916223D01*
X7892819Y4917113D01*
X7941316Y4933293D01*
X8048124Y4968927D01*
X8048126Y4968928D01*
X8055068Y4971244D01*
X8153141Y5031933D01*
X8194285Y5057394D01*
X8200513Y5061248D01*
X8216842Y5077605D01*
X8316181Y5177118D01*
X8321352Y5182298D01*
X8344192Y5219351D01*
X8407262Y5321669D01*
X8407263Y5321671D01*
X8411102Y5327899D01*
X8464949Y5490243D01*
X8465650Y5497084D01*
X8465651Y5497089D01*
X8466159Y5502044D01*
X8493001Y5567770D01*
X8551117Y5608551D01*
X8591502Y5615198D01*
X8640687Y5615198D01*
X8647139Y5616570D01*
X8647144Y5616570D01*
X8734087Y5635051D01*
X8827488Y5654904D01*
X8833519Y5657589D01*
X8995922Y5729895D01*
X8995924Y5729896D01*
X9001952Y5732580D01*
X9025585Y5749750D01*
X9097010Y5801644D01*
X9156453Y5844832D01*
X9237028Y5934320D01*
X9279821Y5981846D01*
X9279822Y5981847D01*
X9284240Y5986754D01*
X9310191Y6031702D01*
X9361573Y6080694D01*
X9419309Y6094700D01*
X10531490Y6094700D01*
X10599611Y6074698D01*
G37*
%TD.AperFunction*%
%TA.AperFunction,Conductor*%
G36*
X36721043Y8069170D02*
G01*
X36736476Y8061924D01*
X36754442Y8051606D01*
X36771287Y8039992D01*
X36796709Y8031591D01*
X36804313Y8029078D01*
X36818318Y8023500D01*
X36849800Y8008719D01*
X36858668Y8007338D01*
X36858669Y8007338D01*
X36870011Y8005572D01*
X36890159Y8000709D01*
X36901061Y7997107D01*
X36901062Y7997107D01*
X36909589Y7994289D01*
X36931139Y7993542D01*
X36944338Y7993084D01*
X36950705Y7992481D01*
X36950716Y7992625D01*
X36955581Y7992248D01*
X36960386Y7991500D01*
X36987823Y7991500D01*
X36992191Y7991424D01*
X37046183Y7989551D01*
X37046185Y7989551D01*
X37055159Y7989240D01*
X37062145Y7991023D01*
X37071015Y7991500D01*
X38865500Y7991500D01*
X38933621Y7971498D01*
X38980114Y7917842D01*
X38991500Y7865500D01*
X38991500Y634500D01*
X38971498Y566379D01*
X38917842Y519886D01*
X38865500Y508500D01*
X38439927Y508500D01*
X38371806Y528502D01*
X38325313Y582158D01*
X38315209Y652432D01*
X38324072Y684035D01*
X38350200Y745143D01*
X38352555Y750651D01*
X38396281Y952042D01*
X38396873Y962007D01*
X38398890Y995951D01*
X38398890Y995960D01*
X38399000Y997807D01*
X38398999Y4287192D01*
X38396055Y4334838D01*
X38351978Y4536153D01*
X38282425Y4698041D01*
X38272994Y4719992D01*
X38272993Y4719993D01*
X38270627Y4725501D01*
X38163129Y4883978D01*
X38158308Y4891085D01*
X38158307Y4891086D01*
X38154940Y4896050D01*
X38144168Y4906804D01*
X38075756Y4975096D01*
X38009090Y5041646D01*
X38004123Y5045003D01*
X38004120Y5045005D01*
X37907578Y5110245D01*
X37838339Y5157035D01*
X37648849Y5238055D01*
X37561671Y5256983D01*
X37452221Y5280747D01*
X37452219Y5280747D01*
X37447458Y5281781D01*
X37437493Y5282373D01*
X37403549Y5284390D01*
X37403540Y5284390D01*
X37401693Y5284500D01*
X36763154Y5284500D01*
X36093308Y5284499D01*
X36091370Y5284379D01*
X36091362Y5284379D01*
X36064120Y5282695D01*
X36045662Y5281555D01*
X35844347Y5237478D01*
X35654999Y5156127D01*
X35484450Y5040440D01*
X35480214Y5036197D01*
X35480212Y5036195D01*
X35414829Y4970698D01*
X35338854Y4894590D01*
X35335497Y4889623D01*
X35335495Y4889620D01*
X35309237Y4850763D01*
X35223465Y4723839D01*
X35142445Y4534349D01*
X35098719Y4332958D01*
X35098430Y4328093D01*
X35096116Y4289138D01*
X35096000Y4287193D01*
X35096000Y3326087D01*
X35075998Y3257966D01*
X35021248Y3210980D01*
X34891481Y3153205D01*
X34891474Y3153201D01*
X34885448Y3150518D01*
X34880107Y3146638D01*
X34880106Y3146637D01*
X34789060Y3080488D01*
X34722192Y3056629D01*
X34653041Y3072710D01*
X34603560Y3123624D01*
X34588999Y3182424D01*
X34588999Y4287192D01*
X34586055Y4334838D01*
X34541978Y4536153D01*
X34472425Y4698041D01*
X34462994Y4719992D01*
X34462993Y4719993D01*
X34460627Y4725501D01*
X34353129Y4883978D01*
X34348308Y4891085D01*
X34348307Y4891086D01*
X34344940Y4896050D01*
X34334168Y4906804D01*
X34265756Y4975096D01*
X34199090Y5041646D01*
X34194123Y5045003D01*
X34194120Y5045005D01*
X34097578Y5110245D01*
X34028339Y5157035D01*
X33838849Y5238055D01*
X33751671Y5256983D01*
X33642221Y5280747D01*
X33642219Y5280747D01*
X33637458Y5281781D01*
X33627493Y5282373D01*
X33593549Y5284390D01*
X33593540Y5284390D01*
X33591693Y5284500D01*
X33573645Y5284500D01*
X32415999Y5284499D01*
X32347878Y5304501D01*
X32301385Y5358157D01*
X32290655Y5423341D01*
X32292035Y5436812D01*
X32300500Y5519429D01*
X32300500Y6128573D01*
X32289978Y6229983D01*
X32259070Y6322625D01*
X32256484Y6393574D01*
X32292668Y6454658D01*
X32356132Y6486483D01*
X32378593Y6488501D01*
X32522217Y6488501D01*
X32590338Y6468499D01*
X32590499Y6468385D01*
X32593371Y6465513D01*
X32600193Y6461478D01*
X32600195Y6461477D01*
X32727580Y6386142D01*
X32734403Y6382107D01*
X32742014Y6379896D01*
X32742016Y6379895D01*
X32779022Y6369144D01*
X32891746Y6336395D01*
X32898151Y6335891D01*
X32898156Y6335890D01*
X32926060Y6333694D01*
X32926068Y6333694D01*
X32928516Y6333501D01*
X33399484Y6333501D01*
X33401932Y6333694D01*
X33401940Y6333694D01*
X33429844Y6335890D01*
X33429849Y6335891D01*
X33436254Y6336395D01*
X33548978Y6369144D01*
X33585984Y6379895D01*
X33585986Y6379896D01*
X33593597Y6382107D01*
X33652177Y6416751D01*
X33720989Y6434210D01*
X33780451Y6416751D01*
X33871900Y6362669D01*
X33879511Y6360458D01*
X33879513Y6360457D01*
X33930196Y6345733D01*
X34031063Y6316428D01*
X34037468Y6315924D01*
X34037473Y6315923D01*
X34065797Y6313694D01*
X34065805Y6313694D01*
X34068253Y6313501D01*
X34306855Y6313501D01*
X34545746Y6313502D01*
X34582937Y6316428D01*
X34589120Y6318224D01*
X34589124Y6318225D01*
X34682855Y6345456D01*
X34753851Y6345253D01*
X34800519Y6319684D01*
X34885648Y6245919D01*
X34885651Y6245917D01*
X34892459Y6240018D01*
X34900657Y6236274D01*
X34929445Y6223127D01*
X35025408Y6179302D01*
X35049162Y6172327D01*
X35089206Y6160569D01*
X35089210Y6160568D01*
X35093529Y6159300D01*
X35097978Y6158660D01*
X35097984Y6158659D01*
X35233751Y6139139D01*
X35233756Y6139139D01*
X35238198Y6138500D01*
X35902000Y6138500D01*
X35905346Y6138860D01*
X35905351Y6138860D01*
X36007785Y6149872D01*
X36007792Y6149873D01*
X36011149Y6150234D01*
X36014450Y6150952D01*
X36060210Y6160906D01*
X36060215Y6160907D01*
X36063491Y6161620D01*
X36167657Y6196290D01*
X36290612Y6275308D01*
X36307476Y6289920D01*
X36340875Y6318861D01*
X36344268Y6321801D01*
X36377764Y6360457D01*
X36434081Y6425450D01*
X36434083Y6425453D01*
X36439982Y6432261D01*
X36500698Y6565210D01*
X36509479Y6595117D01*
X36519431Y6629008D01*
X36519432Y6629012D01*
X36520700Y6633331D01*
X36522609Y6646602D01*
X36540861Y6773553D01*
X36540861Y6773558D01*
X36541500Y6778000D01*
X36541500Y7955113D01*
X36561502Y8023234D01*
X36615158Y8069727D01*
X36685432Y8079831D01*
X36721043Y8069170D01*
G37*
%TD.AperFunction*%
%TA.AperFunction,Conductor*%
G36*
X28805666Y18601978D02*
G01*
X28838107Y18559352D01*
X29582289Y16963450D01*
X29592785Y16951530D01*
X29594556Y16951025D01*
X29602221Y16952756D01*
X29950841Y17115321D01*
X29954309Y17117070D01*
X29990271Y17136625D01*
X29998374Y17141876D01*
X30153504Y17260267D01*
X30162270Y17268384D01*
X30291446Y17413113D01*
X30298511Y17422730D01*
X30397994Y17589285D01*
X30403112Y17600065D01*
X30469304Y17782420D01*
X30472294Y17793981D01*
X30493026Y17924143D01*
X30523494Y17988270D01*
X30583795Y18025744D01*
X30654783Y18024668D01*
X30713921Y17985384D01*
X30725501Y17969151D01*
X31457059Y16749889D01*
X31474955Y16681184D01*
X31452866Y16613712D01*
X31397805Y16568892D01*
X31327254Y16560955D01*
X31306031Y16566621D01*
X31242069Y16589838D01*
X31178229Y16600006D01*
X31044474Y16621310D01*
X31044470Y16621310D01*
X31038551Y16622253D01*
X30941825Y16619129D01*
X30838572Y16615794D01*
X30838569Y16615794D01*
X30832574Y16615600D01*
X30826724Y16614276D01*
X30826722Y16614276D01*
X30636322Y16571193D01*
X30636320Y16571192D01*
X30631572Y16570118D01*
X30627046Y16568326D01*
X30590672Y16553925D01*
X30590654Y16553917D01*
X30588946Y16553241D01*
X29403147Y16000293D01*
X29401445Y15999368D01*
X29401438Y15999364D01*
X29388320Y15992231D01*
X29361209Y15977489D01*
X29197384Y15852462D01*
X29193395Y15847992D01*
X29193390Y15847988D01*
X29064150Y15703185D01*
X29060157Y15698711D01*
X28954478Y15521786D01*
X28952433Y15516152D01*
X28952432Y15516150D01*
X28896311Y15361538D01*
X28884162Y15328069D01*
X28883220Y15322154D01*
X28855455Y15147829D01*
X28851747Y15124551D01*
X28858400Y14918574D01*
X28859724Y14912724D01*
X28859724Y14912722D01*
X28886267Y14795421D01*
X28903882Y14717572D01*
X28905674Y14713046D01*
X28920075Y14676672D01*
X28920083Y14676654D01*
X28920759Y14674946D01*
X29473707Y13489147D01*
X29496511Y13447209D01*
X29621538Y13283384D01*
X29626008Y13279395D01*
X29626012Y13279390D01*
X29737616Y13179781D01*
X29775289Y13146157D01*
X29780442Y13143079D01*
X29931684Y13052741D01*
X29952214Y13040478D01*
X29957848Y13038433D01*
X29957850Y13038432D01*
X30140299Y12972206D01*
X30140302Y12972205D01*
X30145931Y12970162D01*
X30192744Y12962706D01*
X30343526Y12938690D01*
X30343530Y12938690D01*
X30349449Y12937747D01*
X30446175Y12940871D01*
X30549428Y12944206D01*
X30549431Y12944206D01*
X30555426Y12944400D01*
X30561276Y12945724D01*
X30561278Y12945724D01*
X30751678Y12988807D01*
X30751680Y12988808D01*
X30756428Y12989882D01*
X30761615Y12991936D01*
X30797328Y13006075D01*
X30797346Y13006083D01*
X30799054Y13006759D01*
X31984853Y13559707D01*
X31986555Y13560632D01*
X31986562Y13560636D01*
X32022537Y13580198D01*
X32026791Y13582511D01*
X32190616Y13707538D01*
X32194605Y13712008D01*
X32194610Y13712012D01*
X32323850Y13856815D01*
X32323851Y13856816D01*
X32327843Y13861289D01*
X32337709Y13877807D01*
X32430446Y14033064D01*
X32430447Y14033065D01*
X32433522Y14038214D01*
X32503838Y14231931D01*
X32527793Y14382332D01*
X32535310Y14429526D01*
X32535310Y14429530D01*
X32536253Y14435449D01*
X32535088Y14471511D01*
X32534310Y14495615D01*
X32552103Y14564346D01*
X32604230Y14612546D01*
X32674141Y14624913D01*
X32739640Y14597520D01*
X32768288Y14564509D01*
X33485733Y13368766D01*
X35569196Y9896326D01*
X35587092Y9827622D01*
X35565003Y9760149D01*
X35509942Y9715330D01*
X35461152Y9705500D01*
X34122000Y9705500D01*
X34118654Y9705140D01*
X34118649Y9705140D01*
X34016215Y9694128D01*
X34016208Y9694127D01*
X34012851Y9693766D01*
X34009551Y9693048D01*
X34009550Y9693048D01*
X33963790Y9683094D01*
X33963785Y9683093D01*
X33960509Y9682380D01*
X33856343Y9647710D01*
X33733388Y9568692D01*
X33729993Y9565750D01*
X33729990Y9565748D01*
X33687606Y9529022D01*
X33679732Y9522199D01*
X33676792Y9518806D01*
X33589919Y9418550D01*
X33589917Y9418547D01*
X33584018Y9411739D01*
X33523302Y9278790D01*
X33519770Y9266761D01*
X33504651Y9215269D01*
X33503300Y9210669D01*
X33502660Y9206220D01*
X33502659Y9206214D01*
X33483259Y9071282D01*
X33482500Y9066000D01*
X33482500Y8988977D01*
X33482661Y8986727D01*
X33482741Y8984485D01*
X33482057Y8984461D01*
X33467538Y8917736D01*
X33445414Y8888401D01*
X33421091Y8864421D01*
X33418000Y8852488D01*
X33418000Y8036501D01*
X33397998Y7968380D01*
X33344342Y7921887D01*
X33292000Y7910501D01*
X33036000Y7910501D01*
X32967879Y7930503D01*
X32921386Y7984159D01*
X32910000Y8036501D01*
X32910000Y8850425D01*
X32905656Y8865220D01*
X32893996Y8867281D01*
X32891825Y8867110D01*
X32891781Y8867672D01*
X32890313Y8867932D01*
X32825835Y8874727D01*
X32770461Y8919159D01*
X32747899Y8986475D01*
X32749770Y9005572D01*
X32748745Y9005683D01*
X32755131Y9064468D01*
X32755500Y9067865D01*
X32755500Y9814133D01*
X32748745Y9876315D01*
X32697615Y10012704D01*
X32610261Y10129260D01*
X32493705Y10216614D01*
X32357316Y10267744D01*
X32295134Y10274499D01*
X31098866Y10274499D01*
X31036684Y10267744D01*
X30900295Y10216614D01*
X30783739Y10129260D01*
X30696385Y10012704D01*
X30645255Y9876315D01*
X30638500Y9814133D01*
X30638500Y9067865D01*
X30645255Y9005683D01*
X30696385Y8869294D01*
X30783739Y8752738D01*
X30900295Y8665384D01*
X30908703Y8662232D01*
X30981730Y8634855D01*
X31038494Y8592213D01*
X31063194Y8525651D01*
X31063500Y8516873D01*
X31063500Y8465126D01*
X31043498Y8397005D01*
X30989842Y8350512D01*
X30981730Y8347144D01*
X30924134Y8325552D01*
X30900295Y8316615D01*
X30783739Y8229261D01*
X30696385Y8112705D01*
X30645255Y7976316D01*
X30638500Y7914134D01*
X30638500Y7167866D01*
X30645255Y7105684D01*
X30696385Y6969295D01*
X30701765Y6962116D01*
X30705521Y6955256D01*
X30721000Y6894749D01*
X30721000Y6745648D01*
X30700998Y6677527D01*
X30680321Y6654696D01*
X30680946Y6654073D01*
X30680945Y6654072D01*
X30656113Y6629196D01*
X30593832Y6595117D01*
X30523012Y6600119D01*
X30477922Y6629041D01*
X30457233Y6649694D01*
X30452053Y6654865D01*
X30432508Y6666913D01*
X30307692Y6743850D01*
X30308550Y6745243D01*
X30261852Y6786366D01*
X30242396Y6854645D01*
X30262943Y6922603D01*
X30267566Y6929201D01*
X30292229Y6962109D01*
X30297615Y6969295D01*
X30348745Y7105684D01*
X30355500Y7167866D01*
X30355500Y7914134D01*
X30348745Y7976316D01*
X30345971Y7983716D01*
X30344966Y7987942D01*
X30344966Y8046238D01*
X30349105Y8063644D01*
X30354631Y8114515D01*
X30355000Y8121329D01*
X30355000Y8218886D01*
X30350525Y8234125D01*
X30349135Y8235330D01*
X30341452Y8237001D01*
X30241909Y8237001D01*
X30173788Y8257003D01*
X30166344Y8262175D01*
X30093705Y8316615D01*
X30069866Y8325552D01*
X29964712Y8364973D01*
X29964707Y8364974D01*
X29957316Y8367745D01*
X29950011Y8368539D01*
X29888577Y8403636D01*
X29855758Y8466592D01*
X29862185Y8537297D01*
X29905818Y8593303D01*
X29949942Y8613453D01*
X29957316Y8614254D01*
X30093705Y8665384D01*
X30166348Y8719827D01*
X30232854Y8744675D01*
X30241913Y8745001D01*
X30336884Y8745001D01*
X30352123Y8749476D01*
X30353328Y8750866D01*
X30354999Y8758549D01*
X30354999Y8860670D01*
X30354629Y8867491D01*
X30349106Y8918348D01*
X30344965Y8935763D01*
X30344966Y8994059D01*
X30345971Y8998284D01*
X30348745Y9005683D01*
X30349598Y9013536D01*
X30349599Y9013540D01*
X30355131Y9064468D01*
X30355500Y9067865D01*
X30355500Y9814133D01*
X30348745Y9876315D01*
X30297615Y10012704D01*
X30210261Y10129260D01*
X30093705Y10216614D01*
X29957316Y10267744D01*
X29895134Y10274499D01*
X28698866Y10274499D01*
X28636684Y10267744D01*
X28500295Y10216614D01*
X28472091Y10195476D01*
X28390922Y10134644D01*
X28390919Y10134641D01*
X28383739Y10129260D01*
X28378358Y10122080D01*
X28378356Y10122078D01*
X28350090Y10084363D01*
X28293230Y10041849D01*
X28284419Y10038933D01*
X28251022Y10029230D01*
X28251018Y10029228D01*
X28243407Y10027017D01*
X28236581Y10022980D01*
X28225972Y10016706D01*
X28208224Y10008011D01*
X28189383Y10000551D01*
X28182967Y9995889D01*
X28182966Y9995889D01*
X28153613Y9974563D01*
X28143693Y9968047D01*
X28112465Y9949579D01*
X28112462Y9949577D01*
X28105638Y9945541D01*
X28091317Y9931220D01*
X28076284Y9918380D01*
X28059893Y9906471D01*
X28041067Y9883714D01*
X28031712Y9872406D01*
X28023722Y9863625D01*
X27459242Y9299146D01*
X27450963Y9291612D01*
X27444482Y9287499D01*
X27425008Y9266761D01*
X27397857Y9237848D01*
X27395102Y9235006D01*
X27375365Y9215269D01*
X27372885Y9212072D01*
X27365182Y9203052D01*
X27334914Y9170820D01*
X27331095Y9163874D01*
X27331093Y9163871D01*
X27325152Y9153065D01*
X27314301Y9136546D01*
X27301886Y9120540D01*
X27298741Y9113271D01*
X27298738Y9113267D01*
X27284326Y9079962D01*
X27279109Y9069312D01*
X27257805Y9030559D01*
X27255835Y9022886D01*
X27253991Y9015703D01*
X27217675Y8954698D01*
X27154141Y8923011D01*
X27096798Y8926044D01*
X26994966Y8955629D01*
X26988559Y8956133D01*
X26988555Y8956134D01*
X26960944Y8958307D01*
X26960938Y8958307D01*
X26958489Y8958500D01*
X26708652Y8958500D01*
X26458512Y8958499D01*
X26422034Y8955629D01*
X26353655Y8935763D01*
X26273517Y8912481D01*
X26273515Y8912480D01*
X26265904Y8910269D01*
X26250965Y8901434D01*
X26248131Y8899758D01*
X26179314Y8882298D01*
X26124357Y8898436D01*
X26124292Y8898286D01*
X26123077Y8898812D01*
X26119851Y8899759D01*
X26110196Y8905469D01*
X26102585Y8907680D01*
X26102583Y8907681D01*
X25960244Y8949034D01*
X25960245Y8949034D01*
X25954066Y8950829D01*
X25947659Y8951333D01*
X25947655Y8951334D01*
X25920044Y8953507D01*
X25920038Y8953507D01*
X25917589Y8953700D01*
X25717722Y8953700D01*
X25517612Y8953699D01*
X25481134Y8950829D01*
X25395824Y8926044D01*
X25332617Y8907681D01*
X25332615Y8907680D01*
X25325004Y8905469D01*
X25271247Y8873677D01*
X25202434Y8856218D01*
X25142970Y8873678D01*
X25096820Y8900971D01*
X25082383Y8907219D01*
X24968995Y8940161D01*
X24954895Y8940121D01*
X24951600Y8932851D01*
X24951600Y8462742D01*
X24946597Y8427590D01*
X24943766Y8417847D01*
X24943765Y8417840D01*
X24941971Y8411666D01*
X24941467Y8405259D01*
X24941466Y8405255D01*
X24939359Y8378483D01*
X24939100Y8375189D01*
X24939101Y7875212D01*
X24941971Y7838734D01*
X24943767Y7832552D01*
X24943768Y7832547D01*
X24953797Y7798027D01*
X24958800Y7762875D01*
X24958800Y7605179D01*
X24941254Y7541040D01*
X24924906Y7513397D01*
X24922695Y7505786D01*
X24922694Y7505784D01*
X24913832Y7475279D01*
X24879194Y7356054D01*
X24878690Y7349649D01*
X24878689Y7349644D01*
X24876608Y7323196D01*
X24876300Y7319284D01*
X24876300Y6996900D01*
X24856298Y6928779D01*
X24802642Y6882286D01*
X24750300Y6870900D01*
X24504899Y6870899D01*
X24497612Y6870899D01*
X24461134Y6868029D01*
X24408506Y6852739D01*
X24346769Y6834803D01*
X24311616Y6829800D01*
X23936376Y6829800D01*
X23921581Y6825456D01*
X23919737Y6815025D01*
X23921488Y6805441D01*
X23963157Y6662016D01*
X23969405Y6647578D01*
X23978511Y6632181D01*
X23995971Y6563365D01*
X23978511Y6503902D01*
X23971369Y6491825D01*
X23971367Y6491821D01*
X23967331Y6484996D01*
X23965120Y6477385D01*
X23965119Y6477383D01*
X23950031Y6425450D01*
X23921971Y6328866D01*
X23921467Y6322459D01*
X23921466Y6322455D01*
X23919546Y6298059D01*
X23919100Y6292389D01*
X23919101Y5792412D01*
X23921971Y5755934D01*
X23928756Y5732580D01*
X23962859Y5615198D01*
X23967331Y5599804D01*
X23971366Y5592982D01*
X23971366Y5592981D01*
X24016756Y5516230D01*
X24050094Y5459859D01*
X24165059Y5344894D01*
X24171879Y5340861D01*
X24171885Y5340856D01*
X24174692Y5339196D01*
X24176444Y5337320D01*
X24178149Y5335997D01*
X24177936Y5335722D01*
X24223143Y5287302D01*
X24235846Y5217451D01*
X24208768Y5151821D01*
X24181282Y5126473D01*
X24054450Y5040440D01*
X24050214Y5036197D01*
X24050212Y5036195D01*
X23984829Y4970698D01*
X23908854Y4894590D01*
X23905497Y4889623D01*
X23905495Y4889620D01*
X23879237Y4850763D01*
X23793465Y4723839D01*
X23712445Y4534349D01*
X23668719Y4332958D01*
X23668430Y4328093D01*
X23666116Y4289138D01*
X23666000Y4287193D01*
X23666001Y997808D01*
X23668945Y950162D01*
X23713022Y748847D01*
X23715387Y743343D01*
X23715388Y743339D01*
X23740780Y684237D01*
X23749292Y613753D01*
X23718346Y549856D01*
X23657768Y512832D01*
X23625012Y508500D01*
X23199927Y508500D01*
X23131806Y528502D01*
X23085313Y582158D01*
X23075209Y652432D01*
X23084072Y684035D01*
X23110200Y745143D01*
X23112555Y750651D01*
X23156281Y952042D01*
X23156873Y962007D01*
X23158890Y995951D01*
X23158890Y995960D01*
X23159000Y997807D01*
X23158999Y4287192D01*
X23156055Y4334838D01*
X23111978Y4536153D01*
X23042425Y4698041D01*
X23032994Y4719992D01*
X23032993Y4719993D01*
X23030627Y4725501D01*
X22923129Y4883978D01*
X22918308Y4891085D01*
X22918307Y4891086D01*
X22914940Y4896050D01*
X22904168Y4906804D01*
X22835756Y4975096D01*
X22769090Y5041646D01*
X22764123Y5045003D01*
X22764120Y5045005D01*
X22667578Y5110245D01*
X22598339Y5157035D01*
X22408849Y5238055D01*
X22321671Y5256983D01*
X22212221Y5280747D01*
X22212219Y5280747D01*
X22207458Y5281781D01*
X22197493Y5282373D01*
X22163549Y5284390D01*
X22163540Y5284390D01*
X22161693Y5284500D01*
X21523154Y5284500D01*
X20853308Y5284499D01*
X20851370Y5284379D01*
X20851362Y5284379D01*
X20824120Y5282695D01*
X20805662Y5281555D01*
X20604347Y5237478D01*
X20414999Y5156127D01*
X20244450Y5040440D01*
X20240214Y5036197D01*
X20240212Y5036195D01*
X20174829Y4970698D01*
X20098854Y4894590D01*
X20095497Y4889623D01*
X20095495Y4889620D01*
X20069237Y4850763D01*
X19983465Y4723839D01*
X19902445Y4534349D01*
X19858719Y4332958D01*
X19858430Y4328093D01*
X19856116Y4289138D01*
X19856000Y4287193D01*
X19856001Y997808D01*
X19858945Y950162D01*
X19903022Y748847D01*
X19905387Y743343D01*
X19905388Y743339D01*
X19930780Y684237D01*
X19939292Y613753D01*
X19908346Y549856D01*
X19847768Y512832D01*
X19815012Y508500D01*
X19389927Y508500D01*
X19321806Y528502D01*
X19275313Y582158D01*
X19265209Y652432D01*
X19274072Y684035D01*
X19300200Y745143D01*
X19302555Y750651D01*
X19346281Y952042D01*
X19346873Y962007D01*
X19348890Y995951D01*
X19348890Y995960D01*
X19349000Y997807D01*
X19348999Y4287192D01*
X19346055Y4334838D01*
X19301978Y4536153D01*
X19232425Y4698041D01*
X19223913Y4768525D01*
X19254858Y4832423D01*
X19315437Y4869447D01*
X19344233Y4873717D01*
X19398985Y4875438D01*
X19402945Y4875500D01*
X19430856Y4875500D01*
X19434791Y4875997D01*
X19434856Y4876005D01*
X19446693Y4876938D01*
X19478951Y4877952D01*
X19482970Y4878078D01*
X19490889Y4878327D01*
X19510343Y4883979D01*
X19529700Y4887987D01*
X19541930Y4889532D01*
X19541931Y4889532D01*
X19549797Y4890526D01*
X19557168Y4893445D01*
X19557170Y4893445D01*
X19590912Y4906804D01*
X19602142Y4910649D01*
X19636983Y4920771D01*
X19636984Y4920771D01*
X19644593Y4922982D01*
X19651412Y4927015D01*
X19651417Y4927017D01*
X19662028Y4933293D01*
X19679776Y4941988D01*
X19698617Y4949448D01*
X19734387Y4975436D01*
X19744307Y4981952D01*
X19775535Y5000420D01*
X19775538Y5000422D01*
X19782362Y5004458D01*
X19796683Y5018779D01*
X19811717Y5031620D01*
X19812148Y5031933D01*
X19828107Y5043528D01*
X19856298Y5077605D01*
X19864288Y5086384D01*
X22132095Y7354191D01*
X23920032Y7354191D01*
X23922852Y7340769D01*
X23934313Y7337800D01*
X24425485Y7337800D01*
X24440724Y7342275D01*
X24441929Y7343665D01*
X24443600Y7351348D01*
X24443600Y7853085D01*
X24439125Y7868324D01*
X24437735Y7869529D01*
X24430052Y7871200D01*
X23938034Y7871200D01*
X23923239Y7866856D01*
X23921179Y7855197D01*
X23921963Y7845223D01*
X23924262Y7832636D01*
X23965581Y7690417D01*
X23971829Y7675980D01*
X23978802Y7664189D01*
X23996262Y7595373D01*
X23978801Y7535908D01*
X23969405Y7520020D01*
X23963157Y7505584D01*
X23921488Y7362159D01*
X23920032Y7354191D01*
X22132095Y7354191D01*
X23175161Y8397257D01*
X23921340Y8397257D01*
X23924510Y8382170D01*
X23935974Y8379200D01*
X24425485Y8379200D01*
X24440724Y8383675D01*
X24441929Y8385065D01*
X24443600Y8392748D01*
X24443600Y8927100D01*
X24439627Y8940631D01*
X24431729Y8941766D01*
X24312817Y8907219D01*
X24298378Y8900970D01*
X24172195Y8826346D01*
X24159759Y8816699D01*
X24056101Y8713041D01*
X24046454Y8700605D01*
X23971830Y8574422D01*
X23965581Y8559983D01*
X23924262Y8417764D01*
X23921963Y8405177D01*
X23921340Y8397257D01*
X23175161Y8397257D01*
X23517047Y8739143D01*
X23525337Y8746687D01*
X23531818Y8750800D01*
X23578459Y8800468D01*
X23581213Y8803309D01*
X23600935Y8823031D01*
X23603412Y8826224D01*
X23611117Y8835245D01*
X23641386Y8867479D01*
X23645207Y8874429D01*
X23651146Y8885232D01*
X23662002Y8901759D01*
X23669557Y8911498D01*
X23669558Y8911500D01*
X23674414Y8917760D01*
X23691974Y8958340D01*
X23697191Y8968988D01*
X23714675Y9000791D01*
X23714676Y9000793D01*
X23718495Y9007740D01*
X23723533Y9027363D01*
X23729937Y9046066D01*
X23734833Y9057380D01*
X23734833Y9057381D01*
X23737981Y9064655D01*
X23739220Y9072478D01*
X23739223Y9072488D01*
X23744899Y9108324D01*
X23747305Y9119944D01*
X23756328Y9155089D01*
X23756328Y9155090D01*
X23758300Y9162770D01*
X23758300Y9183024D01*
X23759851Y9202735D01*
X23761780Y9214914D01*
X23763020Y9222743D01*
X23758859Y9266762D01*
X23758300Y9278619D01*
X23758300Y10153347D01*
X23778302Y10221468D01*
X23831050Y10267542D01*
X23833313Y10268597D01*
X24074782Y10381196D01*
X24172827Y10426915D01*
X24172830Y10426917D01*
X24175102Y10427976D01*
X24246339Y10468399D01*
X24267507Y10487678D01*
X24315893Y10515134D01*
X24442688Y10553459D01*
X24442694Y10553461D01*
X24446994Y10554761D01*
X24560021Y10607466D01*
X24892346Y10762432D01*
X25353302Y10977379D01*
X25355251Y10978464D01*
X25355258Y10978467D01*
X25411455Y11009735D01*
X25417354Y11013017D01*
X25527098Y11109646D01*
X25605174Y11233279D01*
X25645255Y11373901D01*
X25645184Y11382910D01*
X25645184Y11382914D01*
X25644426Y11478445D01*
X25663887Y11546722D01*
X25717173Y11593639D01*
X25787364Y11604300D01*
X25852177Y11575320D01*
X25864986Y11562712D01*
X25884407Y11540655D01*
X26008040Y11462579D01*
X26061403Y11447369D01*
X26139995Y11424968D01*
X26139997Y11424968D01*
X26148662Y11422498D01*
X26157671Y11422569D01*
X26157674Y11422569D01*
X26223894Y11423095D01*
X26294880Y11423658D01*
X26303502Y11426264D01*
X26430542Y11464663D01*
X26430548Y11464665D01*
X26434848Y11465965D01*
X26461612Y11478445D01*
X26734511Y11605700D01*
X27341156Y11888583D01*
X27397943Y11919557D01*
X27434021Y11950263D01*
X27479227Y11974919D01*
X27608742Y12014066D01*
X27608748Y12014068D01*
X27613048Y12015368D01*
X28088084Y12236881D01*
X28115136Y12245933D01*
X28129484Y12248982D01*
X28175835Y12258834D01*
X28175839Y12258835D01*
X28182288Y12260206D01*
X28218547Y12276349D01*
X28350722Y12335197D01*
X28350724Y12335198D01*
X28356752Y12337882D01*
X28440246Y12398544D01*
X28461046Y12410796D01*
X28623499Y12486549D01*
X28653276Y12500434D01*
X28653282Y12500437D01*
X28655302Y12501379D01*
X28657251Y12502464D01*
X28657258Y12502467D01*
X28713455Y12533735D01*
X28719354Y12537017D01*
X28829098Y12633646D01*
X28907174Y12757279D01*
X28947255Y12897901D01*
X28946938Y12937941D01*
X28946511Y12991674D01*
X28946095Y13044119D01*
X28943489Y13052741D01*
X28905090Y13179781D01*
X28905088Y13179787D01*
X28903788Y13184087D01*
X28865307Y13266611D01*
X28619686Y13793346D01*
X28269860Y14543549D01*
X28234222Y14607601D01*
X28137593Y14717345D01*
X28013960Y14795421D01*
X27960597Y14810631D01*
X27882005Y14833032D01*
X27882003Y14833032D01*
X27873338Y14835502D01*
X27864329Y14835431D01*
X27864326Y14835431D01*
X27798106Y14834905D01*
X27727120Y14834342D01*
X27587152Y14792035D01*
X27583438Y14790303D01*
X27512763Y14784687D01*
X27450184Y14818219D01*
X27415668Y14880261D01*
X27412573Y14908015D01*
X27412573Y15901507D01*
X27413100Y15912690D01*
X27414775Y15920183D01*
X27412635Y15988274D01*
X27412573Y15992231D01*
X27412573Y16020130D01*
X27412069Y16024121D01*
X27411136Y16035962D01*
X27410198Y16065804D01*
X27409845Y16077033D01*
X27427610Y16145600D01*
X27496369Y16260714D01*
X27506204Y16287808D01*
X27564641Y16448799D01*
X27564642Y16448802D01*
X27566685Y16454431D01*
X27582532Y16553925D01*
X27588868Y16593705D01*
X27619336Y16657832D01*
X27679637Y16695306D01*
X27750626Y16694230D01*
X27777912Y16682059D01*
X27915285Y16600006D01*
X27926065Y16594888D01*
X28108420Y16528696D01*
X28119980Y16525706D01*
X28311558Y16495191D01*
X28323475Y16494442D01*
X28517364Y16500704D01*
X28529214Y16502222D01*
X28719520Y16545285D01*
X28728802Y16548154D01*
X28765145Y16562542D01*
X28768568Y16564016D01*
X29113122Y16724685D01*
X29125042Y16735181D01*
X29125547Y16736952D01*
X29123816Y16744617D01*
X28377703Y18344662D01*
X28367042Y18414854D01*
X28396022Y18479666D01*
X28438648Y18512107D01*
X28670662Y18620297D01*
X28740854Y18630958D01*
X28805666Y18601978D01*
G37*
%TD.AperFunction*%
%TA.AperFunction,Conductor*%
G36*
X22281320Y9537008D02*
G01*
X22335343Y9490943D01*
X22355885Y9422983D01*
X22336424Y9354705D01*
X22318984Y9332888D01*
X20741180Y7755085D01*
X19165500Y6179405D01*
X19103188Y6145379D01*
X19076405Y6142500D01*
X16358829Y6142500D01*
X16290708Y6162502D01*
X16244215Y6216158D01*
X16234111Y6286432D01*
X16250376Y6332639D01*
X16308770Y6431378D01*
X16315019Y6445817D01*
X16356338Y6588036D01*
X16358637Y6600623D01*
X16359260Y6608543D01*
X16356090Y6623630D01*
X16344626Y6626600D01*
X15467500Y6626600D01*
X15399379Y6646602D01*
X15352886Y6700258D01*
X15341500Y6752600D01*
X15341499Y7008600D01*
X15361501Y7076720D01*
X15415156Y7123213D01*
X15467499Y7134600D01*
X16342566Y7134600D01*
X16357361Y7138944D01*
X16359421Y7150603D01*
X16358637Y7160577D01*
X16355180Y7179501D01*
X16357034Y7179840D01*
X16357217Y7241856D01*
X16395778Y7301468D01*
X16460446Y7330770D01*
X16478008Y7332000D01*
X17298333Y7332000D01*
X17309516Y7331473D01*
X17317009Y7329798D01*
X17324935Y7330047D01*
X17324936Y7330047D01*
X17385086Y7331938D01*
X17389045Y7332000D01*
X17416956Y7332000D01*
X17420891Y7332497D01*
X17420956Y7332505D01*
X17432793Y7333438D01*
X17465051Y7334452D01*
X17469070Y7334578D01*
X17476989Y7334827D01*
X17496443Y7340479D01*
X17515800Y7344487D01*
X17528030Y7346032D01*
X17528031Y7346032D01*
X17535897Y7347026D01*
X17543268Y7349945D01*
X17543270Y7349945D01*
X17577012Y7363304D01*
X17588242Y7367149D01*
X17623083Y7377271D01*
X17623084Y7377271D01*
X17630693Y7379482D01*
X17637512Y7383515D01*
X17637517Y7383517D01*
X17648128Y7389793D01*
X17665876Y7398488D01*
X17684717Y7405948D01*
X17720487Y7431936D01*
X17730407Y7438452D01*
X17761635Y7456920D01*
X17761638Y7456922D01*
X17768462Y7460958D01*
X17782783Y7475279D01*
X17797817Y7488120D01*
X17807794Y7495369D01*
X17814207Y7500028D01*
X17842398Y7534105D01*
X17850388Y7542884D01*
X18967833Y8660329D01*
X19030145Y8694355D01*
X19100960Y8689290D01*
X19157796Y8646743D01*
X19167032Y8632497D01*
X19183778Y8602399D01*
X19280407Y8492655D01*
X19404040Y8414579D01*
X19442433Y8403636D01*
X19535995Y8376968D01*
X19535997Y8376968D01*
X19544662Y8374498D01*
X19553671Y8374569D01*
X19553674Y8374569D01*
X19619894Y8375095D01*
X19690880Y8375658D01*
X19699502Y8378264D01*
X19826542Y8416663D01*
X19826548Y8416665D01*
X19830848Y8417965D01*
X19989231Y8491820D01*
X20870827Y8902915D01*
X20870830Y8902917D01*
X20873102Y8903976D01*
X20944339Y8944399D01*
X20965507Y8963678D01*
X21013893Y8991134D01*
X21140688Y9029459D01*
X21140694Y9029461D01*
X21144994Y9030761D01*
X21220565Y9066000D01*
X21570722Y9229281D01*
X22051302Y9453379D01*
X22053251Y9454464D01*
X22053258Y9454467D01*
X22109455Y9485735D01*
X22115354Y9489017D01*
X22146624Y9516550D01*
X22210968Y9546554D01*
X22281320Y9537008D01*
G37*
%TD.AperFunction*%
%TA.AperFunction,Conductor*%
G36*
X15239883Y13588097D02*
G01*
X15279141Y13528942D01*
X15283211Y13471850D01*
X15264191Y13352442D01*
X15263442Y13340525D01*
X15269704Y13146636D01*
X15271222Y13134786D01*
X15314285Y12944480D01*
X15317154Y12935198D01*
X15331542Y12898855D01*
X15333016Y12895432D01*
X15493685Y12550878D01*
X15504181Y12538958D01*
X15505952Y12538453D01*
X15513617Y12540184D01*
X17113662Y13286297D01*
X17183854Y13296958D01*
X17248666Y13267978D01*
X17281107Y13225352D01*
X18025289Y11629450D01*
X18035785Y11617530D01*
X18037556Y11617025D01*
X18045221Y11618756D01*
X18171128Y11677468D01*
X18241320Y11688129D01*
X18306132Y11659149D01*
X18344989Y11599729D01*
X18345552Y11528735D01*
X18313473Y11474178D01*
X16498500Y9659205D01*
X16436188Y9625179D01*
X16409405Y9622300D01*
X15381049Y9622300D01*
X15312928Y9642302D01*
X15291319Y9659843D01*
X15269961Y9681508D01*
X15258026Y9684600D01*
X14380900Y9684600D01*
X14312779Y9704602D01*
X14266286Y9758258D01*
X14254900Y9810600D01*
X14254899Y10186116D01*
X14254899Y10188588D01*
X14253158Y10210715D01*
X14750400Y10210715D01*
X14754875Y10195476D01*
X14756265Y10194271D01*
X14763948Y10192600D01*
X15255966Y10192600D01*
X15270761Y10196944D01*
X15272821Y10208603D01*
X15272037Y10218577D01*
X15269738Y10231164D01*
X15228419Y10373383D01*
X15222170Y10387822D01*
X15147546Y10514005D01*
X15137899Y10526441D01*
X15034241Y10630099D01*
X15021805Y10639746D01*
X14895622Y10714370D01*
X14881183Y10720619D01*
X14767795Y10753561D01*
X14753695Y10753521D01*
X14750400Y10746251D01*
X14750400Y10210715D01*
X14253158Y10210715D01*
X14252029Y10225066D01*
X14249545Y10233618D01*
X14247403Y10240990D01*
X14242400Y10276142D01*
X14242400Y10740500D01*
X14238427Y10754031D01*
X14230529Y10755166D01*
X14111617Y10720619D01*
X14097180Y10714371D01*
X14051030Y10687078D01*
X13982213Y10669618D01*
X13922754Y10687077D01*
X13868996Y10718869D01*
X13861385Y10721080D01*
X13861383Y10721081D01*
X13754680Y10752081D01*
X13712866Y10764229D01*
X13706459Y10764733D01*
X13706455Y10764734D01*
X13678844Y10766907D01*
X13678838Y10766907D01*
X13676389Y10767100D01*
X13476522Y10767100D01*
X13276412Y10767099D01*
X13239934Y10764229D01*
X13143130Y10736105D01*
X13091417Y10721081D01*
X13091415Y10721080D01*
X13083804Y10718869D01*
X13076981Y10714834D01*
X13070635Y10711081D01*
X13010586Y10675568D01*
X13010584Y10675567D01*
X12941768Y10658108D01*
X12882305Y10675568D01*
X12832821Y10704833D01*
X12832819Y10704834D01*
X12825996Y10708869D01*
X12818385Y10711080D01*
X12818383Y10711081D01*
X12676044Y10752434D01*
X12676045Y10752434D01*
X12669866Y10754229D01*
X12663459Y10754733D01*
X12663455Y10754734D01*
X12635844Y10756907D01*
X12635838Y10756907D01*
X12633389Y10757100D01*
X12433522Y10757100D01*
X12233412Y10757099D01*
X12196934Y10754229D01*
X12100130Y10726105D01*
X12048417Y10711081D01*
X12048415Y10711080D01*
X12040804Y10708869D01*
X12033979Y10704833D01*
X12033975Y10704831D01*
X11987539Y10677369D01*
X11918723Y10659909D01*
X11859261Y10677369D01*
X11812825Y10704831D01*
X11812821Y10704833D01*
X11805996Y10708869D01*
X11798385Y10711080D01*
X11798383Y10711081D01*
X11656044Y10752434D01*
X11656045Y10752434D01*
X11649866Y10754229D01*
X11643459Y10754733D01*
X11643455Y10754734D01*
X11615844Y10756907D01*
X11615838Y10756907D01*
X11613389Y10757100D01*
X11413522Y10757100D01*
X11213412Y10757099D01*
X11191599Y10755383D01*
X11183351Y10754734D01*
X11183350Y10754734D01*
X11176934Y10754229D01*
X11170752Y10752433D01*
X11170747Y10752432D01*
X11149264Y10746191D01*
X11078267Y10746394D01*
X11062863Y10752081D01*
X10967119Y10794709D01*
X10967118Y10794709D01*
X10961088Y10797394D01*
X10867687Y10817247D01*
X10780744Y10835728D01*
X10780739Y10835728D01*
X10774287Y10837100D01*
X10583313Y10837100D01*
X10576861Y10835728D01*
X10576856Y10835728D01*
X10489913Y10817247D01*
X10396512Y10797394D01*
X10390482Y10794709D01*
X10390481Y10794709D01*
X10228078Y10722403D01*
X10228076Y10722402D01*
X10222048Y10719718D01*
X10216707Y10715838D01*
X10216706Y10715837D01*
X10201558Y10704831D01*
X10067547Y10607466D01*
X10063126Y10602556D01*
X10063125Y10602555D01*
X9959690Y10487678D01*
X9939760Y10465544D01*
X9844273Y10300156D01*
X9785258Y10118528D01*
X9784568Y10111967D01*
X9784568Y10111965D01*
X9774026Y10011658D01*
X9765296Y9928600D01*
X9785258Y9738672D01*
X9844273Y9557044D01*
X9847577Y9551321D01*
X9850147Y9545549D01*
X9859581Y9475182D01*
X9829475Y9410885D01*
X9769386Y9373071D01*
X9735040Y9368300D01*
X9104170Y9368300D01*
X9075022Y9371718D01*
X9073114Y9372172D01*
X9065716Y9374945D01*
X9003534Y9381700D01*
X8207266Y9381700D01*
X8145084Y9374945D01*
X8008695Y9323815D01*
X7892139Y9236461D01*
X7804785Y9119905D01*
X7753655Y8983516D01*
X7748151Y8932851D01*
X7747302Y8925030D01*
X7746900Y8921334D01*
X7746900Y8375066D01*
X7753655Y8312884D01*
X7804785Y8176495D01*
X7863133Y8098642D01*
X7881777Y8073765D01*
X7906625Y8007259D01*
X7891572Y7937876D01*
X7881777Y7922635D01*
X7804785Y7819905D01*
X7753655Y7683516D01*
X7746900Y7621334D01*
X7746900Y7075066D01*
X7747269Y7071671D01*
X7747269Y7071667D01*
X7753155Y7017481D01*
X7740626Y6947598D01*
X7737015Y6940880D01*
X7734490Y6936506D01*
X7683110Y6887510D01*
X7625367Y6873500D01*
X7243068Y6873500D01*
X7239822Y6873163D01*
X7239818Y6873163D01*
X7213152Y6870396D01*
X7140781Y6862887D01*
X7134240Y6860705D01*
X7134241Y6860705D01*
X6985476Y6811073D01*
X6985474Y6811072D01*
X6978532Y6808756D01*
X6972308Y6804904D01*
X6972307Y6804904D01*
X6840587Y6723393D01*
X6833087Y6718752D01*
X6827914Y6713570D01*
X6822180Y6709025D01*
X6820658Y6710945D01*
X6768594Y6682455D01*
X6697774Y6687456D01*
X6661248Y6710882D01*
X6660428Y6709843D01*
X6654682Y6714381D01*
X6649502Y6719552D01*
X6616482Y6739906D01*
X6510131Y6805462D01*
X6510129Y6805463D01*
X6503901Y6809302D01*
X6341557Y6863149D01*
X6334720Y6863849D01*
X6334718Y6863850D01*
X6289000Y6868534D01*
X6240532Y6873500D01*
X5693068Y6873500D01*
X5689822Y6873163D01*
X5689818Y6873163D01*
X5663152Y6870396D01*
X5590781Y6862887D01*
X5584240Y6860705D01*
X5584241Y6860705D01*
X5435476Y6811073D01*
X5435474Y6811072D01*
X5428532Y6808756D01*
X5422308Y6804904D01*
X5422307Y6804904D01*
X5305733Y6732766D01*
X5283087Y6718752D01*
X5277914Y6713570D01*
X5253726Y6689340D01*
X5162248Y6597702D01*
X5158406Y6591470D01*
X5158405Y6591468D01*
X5153421Y6583383D01*
X5100648Y6535890D01*
X5046162Y6523500D01*
X4459870Y6523500D01*
X4391749Y6543502D01*
X4359473Y6580751D01*
X4341784Y6598695D01*
X4301376Y6617761D01*
X4197519Y6693218D01*
X4191491Y6695902D01*
X4191489Y6695903D01*
X4029086Y6768209D01*
X4029085Y6768209D01*
X4023055Y6770894D01*
X3929654Y6790747D01*
X3842711Y6809228D01*
X3842706Y6809228D01*
X3836254Y6810600D01*
X3645280Y6810600D01*
X3638827Y6809228D01*
X3638814Y6809227D01*
X3479497Y6775362D01*
X3408707Y6780763D01*
X3352074Y6823580D01*
X3327580Y6890217D01*
X3327300Y6898607D01*
X3327299Y7102715D01*
X3327299Y7105188D01*
X3325558Y7127315D01*
X3822800Y7127315D01*
X3827275Y7112076D01*
X3828665Y7110871D01*
X3836348Y7109200D01*
X4328366Y7109200D01*
X4343161Y7113544D01*
X4345221Y7125203D01*
X4344437Y7135177D01*
X4342138Y7147764D01*
X4300819Y7289983D01*
X4294570Y7304422D01*
X4219946Y7430605D01*
X4210299Y7443041D01*
X4106641Y7546699D01*
X4094205Y7556346D01*
X3968022Y7630970D01*
X3953583Y7637219D01*
X3840195Y7670161D01*
X3826095Y7670121D01*
X3822800Y7662851D01*
X3822800Y7127315D01*
X3325558Y7127315D01*
X3324429Y7141666D01*
X3319803Y7157590D01*
X3314800Y7192742D01*
X3314800Y7657100D01*
X3310827Y7670631D01*
X3302929Y7671766D01*
X3184017Y7637219D01*
X3169580Y7630971D01*
X3123430Y7603678D01*
X3054613Y7586218D01*
X2995154Y7603677D01*
X2960055Y7624434D01*
X2911604Y7676327D01*
X2902109Y7728531D01*
X5747401Y7728531D01*
X5747771Y7721710D01*
X5753295Y7670848D01*
X5756921Y7655596D01*
X5802076Y7535146D01*
X5810614Y7519551D01*
X5887115Y7417476D01*
X5899676Y7404915D01*
X6001751Y7328414D01*
X6017346Y7319876D01*
X6137794Y7274722D01*
X6153049Y7271095D01*
X6203914Y7265569D01*
X6210728Y7265200D01*
X6362285Y7265200D01*
X6377524Y7269675D01*
X6378729Y7271065D01*
X6380400Y7278748D01*
X6380400Y7283316D01*
X6830400Y7283316D01*
X6834875Y7268077D01*
X6836265Y7266872D01*
X6843948Y7265201D01*
X7000069Y7265201D01*
X7006890Y7265571D01*
X7057752Y7271095D01*
X7073004Y7274721D01*
X7193454Y7319876D01*
X7209049Y7328414D01*
X7311124Y7404915D01*
X7323685Y7417476D01*
X7400186Y7519551D01*
X7408724Y7535146D01*
X7453878Y7655594D01*
X7457505Y7670849D01*
X7463031Y7721714D01*
X7463400Y7728528D01*
X7463400Y7755085D01*
X7458925Y7770324D01*
X7457535Y7771529D01*
X7449852Y7773200D01*
X6848515Y7773200D01*
X6833276Y7768725D01*
X6832071Y7767335D01*
X6830400Y7759652D01*
X6830400Y7283316D01*
X6380400Y7283316D01*
X6380400Y7755085D01*
X6375925Y7770324D01*
X6374535Y7771529D01*
X6366852Y7773200D01*
X5765516Y7773200D01*
X5750277Y7768725D01*
X5749072Y7767335D01*
X5747401Y7759652D01*
X5747401Y7728531D01*
X2902109Y7728531D01*
X2898899Y7746177D01*
X2925975Y7811808D01*
X2970172Y7846717D01*
X3801647Y8241315D01*
X5747400Y8241315D01*
X5751875Y8226076D01*
X5753265Y8224871D01*
X5760948Y8223200D01*
X6362285Y8223200D01*
X6377524Y8227675D01*
X6378729Y8229065D01*
X6380400Y8236748D01*
X6380400Y8241315D01*
X6830400Y8241315D01*
X6834875Y8226076D01*
X6836265Y8224871D01*
X6843948Y8223200D01*
X7445284Y8223200D01*
X7460523Y8227675D01*
X7461728Y8229065D01*
X7463399Y8236748D01*
X7463399Y8267869D01*
X7463029Y8274690D01*
X7457505Y8325552D01*
X7453879Y8340804D01*
X7408724Y8461254D01*
X7400186Y8476849D01*
X7323685Y8578924D01*
X7311124Y8591485D01*
X7209049Y8667986D01*
X7193454Y8676524D01*
X7073006Y8721678D01*
X7057751Y8725305D01*
X7006886Y8730831D01*
X7000072Y8731200D01*
X6848515Y8731200D01*
X6833276Y8726725D01*
X6832071Y8725335D01*
X6830400Y8717652D01*
X6830400Y8241315D01*
X6380400Y8241315D01*
X6380400Y8713084D01*
X6375925Y8728323D01*
X6374535Y8729528D01*
X6366852Y8731199D01*
X6210731Y8731199D01*
X6203910Y8730829D01*
X6153048Y8725305D01*
X6137796Y8721679D01*
X6017346Y8676524D01*
X6001751Y8667986D01*
X5899676Y8591485D01*
X5887115Y8578924D01*
X5810614Y8476849D01*
X5802076Y8461254D01*
X5756922Y8340806D01*
X5753295Y8325551D01*
X5747769Y8274686D01*
X5747400Y8267872D01*
X5747400Y8241315D01*
X3801647Y8241315D01*
X9969059Y11168222D01*
X11868063Y12069444D01*
X15720025Y12069444D01*
X15721756Y12061779D01*
X15884321Y11713159D01*
X15886070Y11709691D01*
X15905625Y11673729D01*
X15910876Y11665626D01*
X16029267Y11510496D01*
X16037384Y11501730D01*
X16182113Y11372554D01*
X16191730Y11365489D01*
X16358285Y11266006D01*
X16369065Y11260888D01*
X16551420Y11194696D01*
X16562980Y11191706D01*
X16754558Y11161191D01*
X16766475Y11160442D01*
X16960364Y11166704D01*
X16972214Y11168222D01*
X17162520Y11211285D01*
X17171802Y11214154D01*
X17208145Y11228542D01*
X17211568Y11230016D01*
X17556122Y11390685D01*
X17568042Y11401181D01*
X17568547Y11402952D01*
X17566816Y11410617D01*
X16989799Y12648035D01*
X16979303Y12659955D01*
X16977532Y12660460D01*
X16969867Y12658729D01*
X15732450Y12081711D01*
X15720530Y12071215D01*
X15720025Y12069444D01*
X11868063Y12069444D01*
X15104758Y13605502D01*
X15174876Y13616638D01*
X15239883Y13588097D01*
G37*
%TD.AperFunction*%
%TA.AperFunction,Conductor*%
G36*
X24299995Y14435018D02*
G01*
X24310345Y14425751D01*
X25091706Y13644390D01*
X25125732Y13582078D01*
X25120667Y13511263D01*
X25119161Y13507585D01*
X25114826Y13500721D01*
X25074745Y13360099D01*
X25074816Y13351090D01*
X25074816Y13351086D01*
X25075574Y13255555D01*
X25056113Y13187278D01*
X25002827Y13140361D01*
X24932636Y13129700D01*
X24867823Y13158680D01*
X24855014Y13171288D01*
X24835593Y13193345D01*
X24711960Y13271421D01*
X24622365Y13296958D01*
X24580005Y13309032D01*
X24580003Y13309032D01*
X24571338Y13311502D01*
X24562329Y13311431D01*
X24562326Y13311431D01*
X24496106Y13310905D01*
X24425120Y13310342D01*
X24416499Y13307736D01*
X24416498Y13307736D01*
X24289458Y13269337D01*
X24289452Y13269335D01*
X24285152Y13268035D01*
X24281077Y13266135D01*
X24281075Y13266134D01*
X24077686Y13171292D01*
X23378844Y12845417D01*
X23322057Y12814443D01*
X23285979Y12783737D01*
X23240773Y12759081D01*
X23111258Y12719934D01*
X23111252Y12719932D01*
X23106952Y12718632D01*
X23102877Y12716732D01*
X23102875Y12716731D01*
X22843920Y12595978D01*
X22064698Y12232621D01*
X22062749Y12231536D01*
X22062742Y12231533D01*
X22062122Y12231188D01*
X22000646Y12196983D01*
X21890902Y12100354D01*
X21812826Y11976721D01*
X21772745Y11836099D01*
X21772816Y11827090D01*
X21772816Y11827086D01*
X21773574Y11731555D01*
X21754113Y11663278D01*
X21700827Y11616361D01*
X21630636Y11605700D01*
X21565823Y11634680D01*
X21553014Y11647288D01*
X21533593Y11669345D01*
X21409960Y11747421D01*
X21401291Y11749892D01*
X21395966Y11752273D01*
X21358301Y11778204D01*
X20659354Y12477151D01*
X20625328Y12539463D01*
X20622449Y12566246D01*
X20622449Y12728407D01*
X20642451Y12796528D01*
X20695199Y12842602D01*
X20833114Y12906913D01*
X21279802Y13115207D01*
X21281504Y13116132D01*
X21281511Y13116136D01*
X21317486Y13135698D01*
X21321740Y13138011D01*
X21485565Y13263038D01*
X21489554Y13267508D01*
X21489559Y13267512D01*
X21618799Y13412315D01*
X21618800Y13412316D01*
X21622792Y13416789D01*
X21643503Y13451463D01*
X21725395Y13588564D01*
X21725396Y13588565D01*
X21728471Y13593714D01*
X21798787Y13787431D01*
X21819043Y13914609D01*
X21849511Y13978735D01*
X21909812Y14016210D01*
X21980800Y14015135D01*
X22008087Y14002962D01*
X22131112Y13929478D01*
X22136746Y13927433D01*
X22136748Y13927432D01*
X22319197Y13861206D01*
X22319200Y13861205D01*
X22324829Y13859162D01*
X22339565Y13856815D01*
X22522424Y13827690D01*
X22522428Y13827690D01*
X22528347Y13826747D01*
X22625073Y13829871D01*
X22728326Y13833206D01*
X22728329Y13833206D01*
X22734324Y13833400D01*
X22740174Y13834724D01*
X22740176Y13834724D01*
X22930576Y13877807D01*
X22930578Y13877808D01*
X22935326Y13878882D01*
X22940513Y13880936D01*
X22976226Y13895075D01*
X22976244Y13895083D01*
X22977952Y13895759D01*
X23522090Y14149495D01*
X24161972Y14447877D01*
X24161983Y14447883D01*
X24163751Y14448707D01*
X24164597Y14449167D01*
X24234316Y14461977D01*
X24299995Y14435018D01*
G37*
%TD.AperFunction*%
%TD*%
%TA.AperFunction,Conductor*%
%TO.N,+5V*%
G36*
X35970121Y9171998D02*
G01*
X36016614Y9118342D01*
X36028000Y9066000D01*
X36028000Y6778000D01*
X36007998Y6709879D01*
X35954342Y6663386D01*
X35902000Y6652000D01*
X35238198Y6652000D01*
X35170077Y6672002D01*
X35123584Y6725658D01*
X35113480Y6795932D01*
X35117201Y6813153D01*
X35130778Y6859887D01*
X35132573Y6866064D01*
X35133077Y6872469D01*
X35133078Y6872474D01*
X35135307Y6900798D01*
X35135307Y6900806D01*
X35135500Y6903254D01*
X35135499Y7330747D01*
X35132573Y7367938D01*
X35086332Y7527101D01*
X35082296Y7533926D01*
X35082294Y7533930D01*
X35079677Y7538356D01*
X35062219Y7607172D01*
X35079677Y7666629D01*
X35081834Y7670277D01*
X35088082Y7684714D01*
X35126109Y7815606D01*
X35126069Y7829706D01*
X35118799Y7833001D01*
X34841386Y7833001D01*
X34777247Y7850548D01*
X34748929Y7867295D01*
X34748925Y7867297D01*
X34742100Y7871333D01*
X34734489Y7873544D01*
X34734487Y7873545D01*
X34683804Y7888269D01*
X34582937Y7917574D01*
X34576532Y7918078D01*
X34576527Y7918079D01*
X34548203Y7920308D01*
X34548195Y7920308D01*
X34545747Y7920501D01*
X34535334Y7920501D01*
X34178999Y7920500D01*
X34110880Y7940502D01*
X34064387Y7994157D01*
X34053000Y8046500D01*
X34053000Y8359116D01*
X34561000Y8359116D01*
X34565475Y8343877D01*
X34566865Y8342672D01*
X34574548Y8341001D01*
X35113048Y8341001D01*
X35126579Y8344974D01*
X35127714Y8352872D01*
X35088082Y8489288D01*
X35081834Y8503725D01*
X35005601Y8632628D01*
X34995952Y8645066D01*
X34890065Y8750953D01*
X34877627Y8760602D01*
X34748724Y8836835D01*
X34734287Y8843083D01*
X34589043Y8885280D01*
X34578365Y8887230D01*
X34563969Y8884206D01*
X34561000Y8872743D01*
X34561000Y8359116D01*
X34053000Y8359116D01*
X34053000Y8870682D01*
X34048525Y8885921D01*
X34039487Y8893753D01*
X34001104Y8953479D01*
X33996000Y8988977D01*
X33996000Y9066000D01*
X34016002Y9134121D01*
X34069658Y9180614D01*
X34122000Y9192000D01*
X35902000Y9192000D01*
X35970121Y9171998D01*
G37*
%TD.AperFunction*%
%TD*%
M02*
