%TF.GenerationSoftware,KiCad,Pcbnew,6.0.11-2627ca5db0~126~ubuntu20.04.1*%
%TF.CreationDate,2023-08-10T10:55:21+02:00*%
%TF.ProjectId,ScartPCB,53636172-7450-4434-922e-6b696361645f,2.0*%
%TF.SameCoordinates,PX76bb820PY7641700*%
%TF.FileFunction,Soldermask,Top*%
%TF.FilePolarity,Negative*%
%FSLAX46Y46*%
G04 Gerber Fmt 4.6, Leading zero omitted, Abs format (unit mm)*
G04 Created by KiCad (PCBNEW 6.0.11-2627ca5db0~126~ubuntu20.04.1) date 2023-08-10 10:55:21*
%MOMM*%
%LPD*%
G01*
G04 APERTURE LIST*
G04 Aperture macros list*
%AMRoundRect*
0 Rectangle with rounded corners*
0 $1 Rounding radius*
0 $2 $3 $4 $5 $6 $7 $8 $9 X,Y pos of 4 corners*
0 Add a 4 corners polygon primitive as box body*
4,1,4,$2,$3,$4,$5,$6,$7,$8,$9,$2,$3,0*
0 Add four circle primitives for the rounded corners*
1,1,$1+$1,$2,$3*
1,1,$1+$1,$4,$5*
1,1,$1+$1,$6,$7*
1,1,$1+$1,$8,$9*
0 Add four rect primitives between the rounded corners*
20,1,$1+$1,$2,$3,$4,$5,0*
20,1,$1+$1,$4,$5,$6,$7,0*
20,1,$1+$1,$6,$7,$8,$9,0*
20,1,$1+$1,$8,$9,$2,$3,0*%
G04 Aperture macros list end*
%ADD10RoundRect,0.250000X-0.650000X0.325000X-0.650000X-0.325000X0.650000X-0.325000X0.650000X0.325000X0*%
%ADD11RoundRect,0.135000X-0.185000X0.135000X-0.185000X-0.135000X0.185000X-0.135000X0.185000X0.135000X0*%
%ADD12RoundRect,0.225000X-0.250000X0.225000X-0.250000X-0.225000X0.250000X-0.225000X0.250000X0.225000X0*%
%ADD13RoundRect,0.135000X0.135000X0.185000X-0.135000X0.185000X-0.135000X-0.185000X0.135000X-0.185000X0*%
%ADD14RoundRect,0.135000X-0.135000X-0.185000X0.135000X-0.185000X0.135000X0.185000X-0.135000X0.185000X0*%
%ADD15RoundRect,0.250000X-0.325000X-0.650000X0.325000X-0.650000X0.325000X0.650000X-0.325000X0.650000X0*%
%ADD16RoundRect,0.571500X-0.276429X-0.759481X0.759481X-0.276429X0.276429X0.759481X-0.759481X0.276429X0*%
%ADD17RoundRect,0.140000X-0.170000X0.140000X-0.170000X-0.140000X0.170000X-0.140000X0.170000X0.140000X0*%
%ADD18RoundRect,0.571500X-0.571500X-1.562000X0.571500X-1.562000X0.571500X1.562000X-0.571500X1.562000X0*%
G04 APERTURE END LIST*
D10*
%TO.C,CB2*%
X32210000Y9016000D03*
X32210000Y6066000D03*
%TD*%
D11*
%TO.C,RR1*%
X12906000Y9448000D03*
X12906000Y8428000D03*
%TD*%
D12*
%TO.C,CR3*%
X12652000Y7173000D03*
X12652000Y5623000D03*
%TD*%
D13*
%TO.C,RG2*%
X21374200Y10436600D03*
X20354200Y10436600D03*
%TD*%
D14*
%TO.C,RB2*%
X27948800Y10462000D03*
X28968800Y10462000D03*
%TD*%
D10*
%TO.C,CG2*%
X22177000Y9016000D03*
X22177000Y6066000D03*
%TD*%
%TO.C,CR1*%
X17097000Y9016000D03*
X17097000Y6066000D03*
%TD*%
D13*
%TO.C,RR2*%
X13881200Y10436600D03*
X12861200Y10436600D03*
%TD*%
D11*
%TO.C,RB1*%
X28019000Y9448000D03*
X28019000Y8428000D03*
%TD*%
D10*
%TO.C,CR2*%
X14684000Y9016000D03*
X14684000Y6066000D03*
%TD*%
D11*
%TO.C,RG1*%
X20399000Y9448000D03*
X20399000Y8428000D03*
%TD*%
D10*
%TO.C,CG1*%
X24590000Y9016000D03*
X24590000Y6066000D03*
%TD*%
D12*
%TO.C,CB3*%
X27765000Y7173000D03*
X27765000Y5623000D03*
%TD*%
D15*
%TO.C,CC2*%
X2549000Y6144000D03*
X5499000Y6144000D03*
%TD*%
D16*
%TO.C,JI12*%
X17105000Y13002000D03*
%TD*%
D10*
%TO.C,CB1*%
X29797000Y9016000D03*
X29797000Y6066000D03*
%TD*%
D16*
%TO.C,JI2*%
X22872898Y15669000D03*
%TD*%
D17*
%TO.C,C0*%
X29805000Y12466000D03*
X29805000Y11506000D03*
%TD*%
D12*
%TO.C,CG3*%
X20145000Y7173000D03*
X20145000Y5623000D03*
%TD*%
D15*
%TO.C,CC1*%
X6613000Y8557000D03*
X9563000Y8557000D03*
%TD*%
D16*
%TO.C,JI5*%
X30694000Y14780000D03*
%TD*%
%TO.C,JI1*%
X19988949Y14335500D03*
%TD*%
%TO.C,JI9*%
X28662000Y18336000D03*
%TD*%
%TO.C,JI3*%
X25756847Y17002500D03*
%TD*%
D18*
%TO.C,J1*%
X37247500Y2642500D03*
X33437500Y2642500D03*
X29627500Y2642500D03*
X25817500Y2642500D03*
X22007500Y2642500D03*
X18197500Y2642500D03*
X14387500Y2642500D03*
X10577500Y2642500D03*
X6767500Y2642500D03*
X2957500Y2642500D03*
%TD*%
M02*
