%TF.GenerationSoftware,KiCad,Pcbnew,6.0.11-2627ca5db0~126~ubuntu20.04.1*%
%TF.CreationDate,2023-08-10T10:55:21+02:00*%
%TF.ProjectId,ScartPCB,53636172-7450-4434-922e-6b696361645f,2.0*%
%TF.SameCoordinates,PX76bb820PY7641700*%
%TF.FileFunction,Soldermask,Bot*%
%TF.FilePolarity,Negative*%
%FSLAX46Y46*%
G04 Gerber Fmt 4.6, Leading zero omitted, Abs format (unit mm)*
G04 Created by KiCad (PCBNEW 6.0.11-2627ca5db0~126~ubuntu20.04.1) date 2023-08-10 10:55:21*
%MOMM*%
%LPD*%
G01*
G04 APERTURE LIST*
G04 Aperture macros list*
%AMRoundRect*
0 Rectangle with rounded corners*
0 $1 Rounding radius*
0 $2 $3 $4 $5 $6 $7 $8 $9 X,Y pos of 4 corners*
0 Add a 4 corners polygon primitive as box body*
4,1,4,$2,$3,$4,$5,$6,$7,$8,$9,$2,$3,0*
0 Add four circle primitives for the rounded corners*
1,1,$1+$1,$2,$3*
1,1,$1+$1,$4,$5*
1,1,$1+$1,$6,$7*
1,1,$1+$1,$8,$9*
0 Add four rect primitives between the rounded corners*
20,1,$1+$1,$2,$3,$4,$5,0*
20,1,$1+$1,$4,$5,$6,$7,0*
20,1,$1+$1,$6,$7,$8,$9,0*
20,1,$1+$1,$8,$9,$2,$3,0*%
%AMFreePoly0*
4,1,6,1.000000,0.000000,0.500000,-0.750000,-0.500000,-0.750000,-0.500000,0.750000,0.500000,0.750000,1.000000,0.000000,1.000000,0.000000,$1*%
%AMFreePoly1*
4,1,6,0.500000,-0.750000,-0.650000,-0.750000,-0.150000,0.000000,-0.650000,0.750000,0.500000,0.750000,0.500000,-0.750000,0.500000,-0.750000,$1*%
G04 Aperture macros list end*
%ADD10RoundRect,0.571500X-0.571500X-1.562000X0.571500X-1.562000X0.571500X1.562000X-0.571500X1.562000X0*%
%ADD11RoundRect,0.140000X0.140000X0.170000X-0.140000X0.170000X-0.140000X-0.170000X0.140000X-0.170000X0*%
%ADD12RoundRect,0.135000X-0.135000X-0.185000X0.135000X-0.185000X0.135000X0.185000X-0.135000X0.185000X0*%
%ADD13RoundRect,0.218750X0.218750X0.256250X-0.218750X0.256250X-0.218750X-0.256250X0.218750X-0.256250X0*%
%ADD14RoundRect,0.571500X-0.276429X-0.759481X0.759481X-0.276429X0.276429X0.759481X-0.759481X0.276429X0*%
%ADD15RoundRect,0.135000X0.135000X0.185000X-0.135000X0.185000X-0.135000X-0.185000X0.135000X-0.185000X0*%
%ADD16RoundRect,0.135000X0.185000X-0.135000X0.185000X0.135000X-0.185000X0.135000X-0.185000X-0.135000X0*%
%ADD17RoundRect,0.147500X-0.147500X-0.172500X0.147500X-0.172500X0.147500X0.172500X-0.147500X0.172500X0*%
%ADD18FreePoly0,25.000000*%
%ADD19FreePoly1,25.000000*%
%ADD20RoundRect,0.225000X-0.225000X-0.250000X0.225000X-0.250000X0.225000X0.250000X-0.225000X0.250000X0*%
%ADD21R,0.700000X0.450000*%
%ADD22RoundRect,0.140000X0.170000X-0.140000X0.170000X0.140000X-0.170000X0.140000X-0.170000X-0.140000X0*%
%ADD23RoundRect,0.147500X0.172500X-0.147500X0.172500X0.147500X-0.172500X0.147500X-0.172500X-0.147500X0*%
%ADD24R,1.100000X0.650001*%
%ADD25FreePoly0,205.000000*%
%ADD26FreePoly1,205.000000*%
G04 APERTURE END LIST*
D10*
%TO.C,J1*%
X36747500Y2642500D03*
X32937500Y2642500D03*
X29127500Y2642500D03*
X25317500Y2642500D03*
X21507500Y2642500D03*
X17697500Y2642500D03*
X13887500Y2642500D03*
X10077500Y2642500D03*
X6267500Y2642500D03*
X2457500Y2642500D03*
%TD*%
D11*
%TO.C,C3*%
X25664800Y7083800D03*
X24704800Y7083800D03*
%TD*%
D12*
%TO.C,RC2*%
X2548800Y6855200D03*
X3568800Y6855200D03*
%TD*%
D13*
%TO.C,L1*%
X31354500Y5824001D03*
X29779500Y5824001D03*
%TD*%
D14*
%TO.C,JI4*%
X19988949Y14335500D03*
%TD*%
%TO.C,JI8*%
X30694000Y14780000D03*
%TD*%
%TO.C,JI11*%
X17105000Y13002000D03*
%TD*%
D15*
%TO.C,R9*%
X12408000Y5509000D03*
X11388000Y5509000D03*
%TD*%
%TO.C,R2*%
X25717600Y8125200D03*
X24697600Y8125200D03*
%TD*%
D12*
%TO.C,R8*%
X14563000Y6880600D03*
X15583000Y6880600D03*
%TD*%
D16*
%TO.C,R7*%
X13549000Y6827800D03*
X13549000Y7847800D03*
%TD*%
D14*
%TO.C,JI7*%
X22872898Y15669000D03*
%TD*%
D17*
%TO.C,D2*%
X26983200Y6093200D03*
X27953200Y6093200D03*
%TD*%
D18*
%TO.C,JP1*%
X26353927Y12822602D03*
D19*
X27668073Y13435398D03*
%TD*%
D16*
%TO.C,R1*%
X26708500Y7160000D03*
X26708500Y8180000D03*
%TD*%
D12*
%TO.C,R6*%
X13476400Y9938600D03*
X14496400Y9938600D03*
%TD*%
D14*
%TO.C,JI6*%
X25756847Y17002500D03*
%TD*%
D20*
%TO.C,CC3*%
X5966800Y5890000D03*
X7516800Y5890000D03*
%TD*%
D21*
%TO.C,Q1*%
X12161400Y8648200D03*
X12161400Y7348200D03*
X10161400Y7998200D03*
%TD*%
D22*
%TO.C,C1*%
X33164000Y7122001D03*
X33164000Y8082001D03*
%TD*%
D23*
%TO.C,D1*%
X34307000Y7117001D03*
X34307000Y8087001D03*
%TD*%
D21*
%TO.C,Q2*%
X8605400Y8648200D03*
X8605400Y7348200D03*
X6605400Y7998200D03*
%TD*%
D15*
%TO.C,R3*%
X25717600Y6042400D03*
X24697600Y6042400D03*
%TD*%
D12*
%TO.C,R5*%
X11413400Y9928600D03*
X12433400Y9928600D03*
%TD*%
D24*
%TO.C,U1*%
X29297000Y7541000D03*
X29297000Y8491001D03*
X29297000Y9440999D03*
X31697000Y9440999D03*
X31697000Y7541000D03*
%TD*%
D14*
%TO.C,JI10*%
X28662000Y18336000D03*
%TD*%
D25*
%TO.C,JP2*%
X24366073Y11911398D03*
D26*
X23051927Y11298602D03*
%TD*%
D25*
%TO.C,JP3*%
X21064073Y10387398D03*
D26*
X19749927Y9774602D03*
%TD*%
D11*
%TO.C,C4*%
X14466400Y8838200D03*
X13506400Y8838200D03*
%TD*%
D22*
%TO.C,C2*%
X27851500Y7190000D03*
X27851500Y8150000D03*
%TD*%
D12*
%TO.C,RC1*%
X1761400Y5686800D03*
X2781400Y5686800D03*
%TD*%
M02*
