%TF.GenerationSoftware,KiCad,Pcbnew,6.0.11-2627ca5db0~126~ubuntu20.04.1*%
%TF.CreationDate,2023-08-10T10:55:31+02:00*%
%TF.ProjectId,ScartPCB,53636172-7450-4434-922e-6b696361645f,2.0*%
%TF.SameCoordinates,PX76bb820PY7641700*%
%TF.FileFunction,Plated,1,4,PTH,Drill*%
%TF.FilePolarity,Positive*%
%FSLAX46Y46*%
G04 Gerber Fmt 4.6, Leading zero omitted, Abs format (unit mm)*
G04 Created by KiCad (PCBNEW 6.0.11-2627ca5db0~126~ubuntu20.04.1) date 2023-08-10 10:55:31*
%MOMM*%
%LPD*%
G01*
G04 APERTURE LIST*
%TA.AperFunction,ViaDrill*%
%ADD10C,0.400000*%
%TD*%
G04 APERTURE END LIST*
D10*
X3740767Y5902100D03*
X4841014Y8298785D03*
X6132200Y3248400D03*
X6132200Y1419600D03*
X6868800Y4112000D03*
X6868800Y2308600D03*
X8545200Y6523698D03*
X9129400Y10182600D03*
X9967600Y5788400D03*
X10678800Y9928600D03*
X11237600Y7998200D03*
X12177400Y11655800D03*
X14742800Y12290800D03*
X16470000Y13256000D03*
X16673200Y7240500D03*
X17740000Y12748000D03*
X19179206Y7807194D03*
X22148398Y13179800D03*
X23378800Y7541000D03*
X24366073Y11911398D03*
X26503000Y12875000D03*
X26630000Y9954000D03*
X27722200Y2359400D03*
X27900000Y13129000D03*
X28154000Y18590000D03*
X28458800Y15999200D03*
X29170000Y18082000D03*
X29957400Y15059400D03*
X30440000Y14094200D03*
X30490800Y10436600D03*
X30490800Y7515600D03*
X30592400Y17066000D03*
X30973400Y15491200D03*
X31379800Y14551400D03*
X32472000Y12494000D03*
X33234000Y10208000D03*
X34199200Y5813800D03*
X35342200Y2359400D03*
X35520000Y8684000D03*
X35520000Y7414000D03*
X37044000Y6398000D03*
X37806000Y7160000D03*
M02*
